<?xml version="1.0" encoding="UTF-8" standalone="no"?>
<!DOCTYPE svg PUBLIC "-//W3C//DTD SVG 1.1//EN"
 "http://www.w3.org/Graphics/SVG/1.1/DTD/svg11.dtd">
<!-- Generated by graphviz version 2.43.0 (0)
 -->
<!-- Title: SystemTopology Pages: 1 -->
<svg width="1464pt" height="476pt"
 viewBox="0.00 0.00 1463.50 476.00" xmlns="http://www.w3.org/2000/svg" xmlns:xlink="http://www.w3.org/1999/xlink">
<g id="graph0" class="graph" transform="scale(1 1) rotate(0) translate(4 472)">
<title>SystemTopology</title>
<polygon fill="white" stroke="transparent" points="-4,4 -4,-472 1459.5,-472 1459.5,4 -4,4"/>
<!-- config -->
<g id="node1" class="node">
<title>config</title>
<path fill="none" stroke="black" d="M356,-468C356,-468 321,-468 321,-468 315,-468 309,-462 309,-456 309,-456 309,-444 309,-444 309,-438 315,-432 321,-432 321,-432 356,-432 356,-432 362,-432 368,-438 368,-444 368,-444 368,-456 368,-456 368,-462 362,-468 356,-468"/>
<text text-anchor="middle" x="338.5" y="-446.3" font-family="Times,serif" font-size="14.00">config</text>
</g>
<!-- runtimeStore -->
<g id="node12" class="node">
<title>runtimeStore</title>
<path fill="none" stroke="black" d="M481,-396C481,-396 392,-396 392,-396 386,-396 380,-390 380,-384 380,-384 380,-372 380,-372 380,-366 386,-360 392,-360 392,-360 481,-360 481,-360 487,-360 493,-366 493,-372 493,-372 493,-384 493,-384 493,-390 487,-396 481,-396"/>
<text text-anchor="middle" x="436.5" y="-374.3" font-family="Times,serif" font-size="14.00">runtimeStore</text>
</g>
<!-- config&#45;&gt;runtimeStore -->
<g id="edge43" class="edge">
<title>config&#45;&gt;runtimeStore</title>
<path fill="none" stroke="black" d="M362.47,-431.88C375.05,-422.89 390.63,-411.76 404.25,-402.03"/>
<polygon fill="black" stroke="black" points="406.33,-404.85 412.43,-396.19 402.26,-399.15 406.33,-404.85"/>
</g>
<!-- renderer -->
<g id="node20" class="node">
<title>renderer</title>
<path fill="none" stroke="black" d="M395.5,-180C395.5,-180 339.5,-180 339.5,-180 333.5,-180 327.5,-174 327.5,-168 327.5,-168 327.5,-156 327.5,-156 327.5,-150 333.5,-144 339.5,-144 339.5,-144 395.5,-144 395.5,-144 401.5,-144 407.5,-150 407.5,-156 407.5,-156 407.5,-168 407.5,-168 407.5,-174 401.5,-180 395.5,-180"/>
<text text-anchor="middle" x="367.5" y="-158.3" font-family="Times,serif" font-size="14.00">renderer</text>
</g>
<!-- config&#45;&gt;renderer -->
<g id="edge21" class="edge">
<title>config&#45;&gt;renderer</title>
<path fill="none" stroke="black" d="M338.09,-431.82C337.87,-421.44 337.61,-407.96 337.5,-396 337.35,-380 336.29,-375.95 337.5,-360 342.12,-298.93 354.7,-228.12 362.02,-190.24"/>
<polygon fill="black" stroke="black" points="365.53,-190.51 364.02,-180.03 358.66,-189.17 365.53,-190.51"/>
</g>
<!-- time -->
<g id="node2" class="node">
<title>time</title>
<path fill="none" stroke="black" d="M1284.5,-468C1284.5,-468 1254.5,-468 1254.5,-468 1248.5,-468 1242.5,-462 1242.5,-456 1242.5,-456 1242.5,-444 1242.5,-444 1242.5,-438 1248.5,-432 1254.5,-432 1254.5,-432 1284.5,-432 1284.5,-432 1290.5,-432 1296.5,-438 1296.5,-444 1296.5,-444 1296.5,-456 1296.5,-456 1296.5,-462 1290.5,-468 1284.5,-468"/>
<text text-anchor="middle" x="1269.5" y="-446.3" font-family="Times,serif" font-size="14.00">time</text>
</g>
<!-- timer -->
<g id="node13" class="node">
<title>timer</title>
<path fill="none" stroke="black" d="M1163.5,-396C1163.5,-396 1131.5,-396 1131.5,-396 1125.5,-396 1119.5,-390 1119.5,-384 1119.5,-384 1119.5,-372 1119.5,-372 1119.5,-366 1125.5,-360 1131.5,-360 1131.5,-360 1163.5,-360 1163.5,-360 1169.5,-360 1175.5,-366 1175.5,-372 1175.5,-372 1175.5,-384 1175.5,-384 1175.5,-390 1169.5,-396 1163.5,-396"/>
<text text-anchor="middle" x="1147.5" y="-374.3" font-family="Times,serif" font-size="14.00">timer</text>
</g>
<!-- time&#45;&gt;timer -->
<g id="edge1" class="edge">
<title>time&#45;&gt;timer</title>
<path fill="none" stroke="black" d="M1242.42,-433.46C1225.41,-423.7 1203.24,-410.98 1184.6,-400.29"/>
<polygon fill="black" stroke="black" points="1186.19,-397.16 1175.77,-395.22 1182.7,-403.23 1186.19,-397.16"/>
</g>
<!-- analyticsStore -->
<g id="node14" class="node">
<title>analyticsStore</title>
<path fill="none" stroke="black" d="M1339,-396C1339,-396 1244,-396 1244,-396 1238,-396 1232,-390 1232,-384 1232,-384 1232,-372 1232,-372 1232,-366 1238,-360 1244,-360 1244,-360 1339,-360 1339,-360 1345,-360 1351,-366 1351,-372 1351,-372 1351,-384 1351,-384 1351,-390 1345,-396 1339,-396"/>
<text text-anchor="middle" x="1291.5" y="-374.3" font-family="Times,serif" font-size="14.00">analyticsStore</text>
</g>
<!-- time&#45;&gt;analyticsStore -->
<g id="edge51" class="edge">
<title>time&#45;&gt;analyticsStore</title>
<path fill="none" stroke="black" d="M1274.94,-431.7C1277.39,-423.9 1280.34,-414.51 1283.07,-405.83"/>
<polygon fill="black" stroke="black" points="1286.46,-406.69 1286.12,-396.1 1279.79,-404.59 1286.46,-406.69"/>
</g>
<!-- engine -->
<g id="node16" class="node">
<title>engine</title>
<path fill="none" stroke="black" d="M858,-324C858,-324 817,-324 817,-324 811,-324 805,-318 805,-312 805,-312 805,-300 805,-300 805,-294 811,-288 817,-288 817,-288 858,-288 858,-288 864,-288 870,-294 870,-300 870,-300 870,-312 870,-312 870,-318 864,-324 858,-324"/>
<text text-anchor="middle" x="837.5" y="-302.3" font-family="Times,serif" font-size="14.00">engine</text>
</g>
<!-- time&#45;&gt;engine -->
<g id="edge11" class="edge">
<title>time&#45;&gt;engine</title>
<path fill="none" stroke="black" d="M1242.43,-440.2C1233.02,-437.33 1222.35,-434.3 1212.5,-432 1119.86,-410.37 1091.4,-427.11 1001.5,-396 953.79,-379.49 903.39,-350.1 871.26,-329.63"/>
<polygon fill="black" stroke="black" points="873,-326.58 862.69,-324.11 869.2,-332.47 873,-326.58"/>
</g>
<!-- webglRenderer -->
<g id="node17" class="node">
<title>webglRenderer</title>
<path fill="none" stroke="black" d="M303.5,-252C303.5,-252 201.5,-252 201.5,-252 195.5,-252 189.5,-246 189.5,-240 189.5,-240 189.5,-228 189.5,-228 189.5,-222 195.5,-216 201.5,-216 201.5,-216 303.5,-216 303.5,-216 309.5,-216 315.5,-222 315.5,-228 315.5,-228 315.5,-240 315.5,-240 315.5,-246 309.5,-252 303.5,-252"/>
<text text-anchor="middle" x="252.5" y="-230.3" font-family="Times,serif" font-size="14.00">webglRenderer</text>
</g>
<!-- time&#45;&gt;webglRenderer -->
<g id="edge47" class="edge">
<title>time&#45;&gt;webglRenderer</title>
<path fill="none" stroke="black" d="M1242.43,-441.02C1210.51,-431.38 1156.04,-414.17 1110.5,-396 1005.23,-354.01 989,-317.23 879.5,-288 776.85,-260.6 468.23,-244.24 325.88,-237.96"/>
<polygon fill="black" stroke="black" points="325.66,-234.45 315.51,-237.51 325.35,-241.44 325.66,-234.45"/>
</g>
<!-- updateLoop -->
<g id="node18" class="node">
<title>updateLoop</title>
<path fill="none" stroke="black" d="M1092,-252C1092,-252 1015,-252 1015,-252 1009,-252 1003,-246 1003,-240 1003,-240 1003,-228 1003,-228 1003,-222 1009,-216 1015,-216 1015,-216 1092,-216 1092,-216 1098,-216 1104,-222 1104,-228 1104,-228 1104,-240 1104,-240 1104,-246 1098,-252 1092,-252"/>
<text text-anchor="middle" x="1053.5" y="-230.3" font-family="Times,serif" font-size="14.00">updateLoop</text>
</g>
<!-- time&#45;&gt;updateLoop -->
<g id="edge35" class="edge">
<title>time&#45;&gt;updateLoop</title>
<path fill="none" stroke="black" d="M1253.44,-431.71C1236.52,-413.61 1208.98,-384.47 1184.5,-360 1148.68,-324.2 1106.07,-283.96 1079.39,-259.04"/>
<polygon fill="black" stroke="black" points="1081.68,-256.39 1071.98,-252.13 1076.91,-261.51 1081.68,-256.39"/>
</g>
<!-- time&#45;&gt;renderer -->
<g id="edge15" class="edge">
<title>time&#45;&gt;renderer</title>
<path fill="none" stroke="black" d="M1296.79,-441.34C1318.32,-433.7 1346.92,-419.62 1360.5,-396 1368.47,-382.13 1368.47,-373.87 1360.5,-360 1297.2,-249.82 1234.92,-253.48 1113.5,-216 1047.44,-195.61 574.95,-172.46 418.02,-165.26"/>
<polygon fill="black" stroke="black" points="417.86,-161.75 407.71,-164.79 417.54,-168.74 417.86,-161.75"/>
</g>
<!-- atmosphere -->
<g id="node22" class="node">
<title>atmosphere</title>
<path fill="none" stroke="black" d="M1147,-180C1147,-180 1070,-180 1070,-180 1064,-180 1058,-174 1058,-168 1058,-168 1058,-156 1058,-156 1058,-150 1064,-144 1070,-144 1070,-144 1147,-144 1147,-144 1153,-144 1159,-150 1159,-156 1159,-156 1159,-168 1159,-168 1159,-174 1153,-180 1147,-180"/>
<text text-anchor="middle" x="1108.5" y="-158.3" font-family="Times,serif" font-size="14.00">atmosphere</text>
</g>
<!-- time&#45;&gt;atmosphere -->
<g id="edge32" class="edge">
<title>time&#45;&gt;atmosphere</title>
<path fill="none" stroke="black" d="M1296.76,-445.98C1326.31,-441.09 1372.09,-428.43 1393.5,-396 1412.36,-367.42 1369.86,-289.72 1368.5,-288 1318.56,-224.82 1228.78,-191.69 1168.91,-175.79"/>
<polygon fill="black" stroke="black" points="1169.76,-172.39 1159.2,-173.29 1168.01,-179.17 1169.76,-172.39"/>
</g>
<!-- simulation -->
<g id="node23" class="node">
<title>simulation</title>
<path fill="none" stroke="black" d="M672.5,-108C672.5,-108 604.5,-108 604.5,-108 598.5,-108 592.5,-102 592.5,-96 592.5,-96 592.5,-84 592.5,-84 592.5,-78 598.5,-72 604.5,-72 604.5,-72 672.5,-72 672.5,-72 678.5,-72 684.5,-78 684.5,-84 684.5,-84 684.5,-96 684.5,-96 684.5,-102 678.5,-108 672.5,-108"/>
<text text-anchor="middle" x="638.5" y="-86.3" font-family="Times,serif" font-size="14.00">simulation</text>
</g>
<!-- time&#45;&gt;simulation -->
<g id="edge42" class="edge">
<title>time&#45;&gt;simulation</title>
<path fill="none" stroke="black" d="M1296.75,-444.71C1327.39,-438.63 1377.1,-424.87 1409.5,-396 1442.74,-366.38 1455.5,-351.53 1455.5,-307 1455.5,-307 1455.5,-307 1455.5,-233 1455.5,-107.07 1309.72,-170 1186.5,-144 1009.69,-106.69 795.15,-95.58 695.04,-92.32"/>
<polygon fill="black" stroke="black" points="694.96,-88.82 684.85,-92.01 694.74,-95.82 694.96,-88.82"/>
</g>
<!-- canvas -->
<g id="node3" class="node">
<title>canvas</title>
<path fill="none" stroke="black" d="M172,-468C172,-468 131,-468 131,-468 125,-468 119,-462 119,-456 119,-456 119,-444 119,-444 119,-438 125,-432 131,-432 131,-432 172,-432 172,-432 178,-432 184,-438 184,-444 184,-444 184,-456 184,-456 184,-462 178,-468 172,-468"/>
<text text-anchor="middle" x="151.5" y="-446.3" font-family="Times,serif" font-size="14.00">canvas</text>
</g>
<!-- camera -->
<g id="node15" class="node">
<title>camera</title>
<path fill="none" stroke="black" d="M199,-324C199,-324 154,-324 154,-324 148,-324 142,-318 142,-312 142,-312 142,-300 142,-300 142,-294 148,-288 154,-288 154,-288 199,-288 199,-288 205,-288 211,-294 211,-300 211,-300 211,-312 211,-312 211,-318 205,-324 199,-324"/>
<text text-anchor="middle" x="176.5" y="-302.3" font-family="Times,serif" font-size="14.00">camera</text>
</g>
<!-- canvas&#45;&gt;camera -->
<g id="edge2" class="edge">
<title>canvas&#45;&gt;camera</title>
<path fill="none" stroke="black" d="M154.52,-431.87C158.78,-407.67 166.6,-363.21 171.68,-334.39"/>
<polygon fill="black" stroke="black" points="175.19,-334.64 173.47,-324.19 168.29,-333.43 175.19,-334.64"/>
</g>
<!-- canvas&#45;&gt;webglRenderer -->
<g id="edge44" class="edge">
<title>canvas&#45;&gt;webglRenderer</title>
<path fill="none" stroke="black" d="M162.24,-431.65C176.65,-407.93 202.52,-363.75 220.5,-324 229.76,-303.52 238.27,-279.49 244.18,-261.57"/>
<polygon fill="black" stroke="black" points="247.51,-262.64 247.27,-252.05 240.85,-260.48 247.51,-262.64"/>
</g>
<!-- canvas&#45;&gt;renderer -->
<g id="edge12" class="edge">
<title>canvas&#45;&gt;renderer</title>
<path fill="none" stroke="black" d="M142.4,-431.97C121.05,-389.42 73.59,-277.47 129.5,-216 154.25,-188.78 255.12,-174.09 317.32,-167.46"/>
<polygon fill="black" stroke="black" points="317.75,-170.94 327.33,-166.43 317.03,-163.98 317.75,-170.94"/>
</g>
<!-- atlases -->
<g id="node4" class="node">
<title>atlases</title>
<path fill="none" stroke="black" d="M55,-468C55,-468 12,-468 12,-468 6,-468 0,-462 0,-456 0,-456 0,-444 0,-444 0,-438 6,-432 12,-432 12,-432 55,-432 55,-432 61,-432 67,-438 67,-444 67,-444 67,-456 67,-456 67,-462 61,-468 55,-468"/>
<text text-anchor="middle" x="33.5" y="-446.3" font-family="Times,serif" font-size="14.00">atlases</text>
</g>
<!-- atlases&#45;&gt;webglRenderer -->
<g id="edge48" class="edge">
<title>atlases&#45;&gt;webglRenderer</title>
<path fill="none" stroke="black" d="M40.2,-431.63C53.44,-399.32 85.88,-329.51 133.5,-288 148.96,-274.52 168.4,-263.94 187.06,-255.9"/>
<polygon fill="black" stroke="black" points="188.51,-259.09 196.42,-252.04 185.84,-252.61 188.51,-259.09"/>
</g>
<!-- atlases&#45;&gt;renderer -->
<g id="edge17" class="edge">
<title>atlases&#45;&gt;renderer</title>
<path fill="none" stroke="black" d="M33.35,-431.87C33.97,-388.6 41.96,-274.19 106.5,-216 136.89,-188.59 250.06,-173.75 316.99,-167.19"/>
<polygon fill="black" stroke="black" points="317.69,-170.64 327.32,-166.21 317.03,-163.68 317.69,-170.64"/>
</g>
<!-- profiler -->
<g id="node5" class="node">
<title>profiler</title>
<path fill="none" stroke="black" d="M265,-468C265,-468 220,-468 220,-468 214,-468 208,-462 208,-456 208,-456 208,-444 208,-444 208,-438 214,-432 220,-432 220,-432 265,-432 265,-432 271,-432 277,-438 277,-444 277,-444 277,-456 277,-456 277,-462 271,-468 265,-468"/>
<text text-anchor="middle" x="242.5" y="-446.3" font-family="Times,serif" font-size="14.00">profiler</text>
</g>
<!-- profiler&#45;&gt;engine -->
<g id="edge6" class="edge">
<title>profiler&#45;&gt;engine</title>
<path fill="none" stroke="black" d="M277.3,-438.13C284.91,-435.95 292.94,-433.78 300.5,-432 389.28,-411.14 414.09,-418.36 502.5,-396 551.96,-383.49 562.39,-373.84 611.5,-360 674.79,-342.17 749.21,-325.54 794.86,-315.82"/>
<polygon fill="black" stroke="black" points="795.65,-319.23 804.71,-313.74 794.2,-312.38 795.65,-319.23"/>
</g>
<!-- profiler&#45;&gt;renderer -->
<g id="edge22" class="edge">
<title>profiler&#45;&gt;renderer</title>
<path fill="none" stroke="black" d="M219.68,-431.68C193.11,-409.92 150.68,-369.84 133.5,-324 115.98,-277.24 126.62,-248.54 164.5,-216 207.18,-179.33 272.26,-167.62 317.17,-164.09"/>
<polygon fill="black" stroke="black" points="317.54,-167.58 327.28,-163.41 317.07,-160.59 317.54,-167.58"/>
</g>
<!-- randomness -->
<g id="node6" class="node">
<title>randomness</title>
<path fill="none" stroke="black" d="M1191.5,-468C1191.5,-468 1111.5,-468 1111.5,-468 1105.5,-468 1099.5,-462 1099.5,-456 1099.5,-456 1099.5,-444 1099.5,-444 1099.5,-438 1105.5,-432 1111.5,-432 1111.5,-432 1191.5,-432 1191.5,-432 1197.5,-432 1203.5,-438 1203.5,-444 1203.5,-444 1203.5,-456 1203.5,-456 1203.5,-462 1197.5,-468 1191.5,-468"/>
<text text-anchor="middle" x="1151.5" y="-446.3" font-family="Times,serif" font-size="14.00">randomness</text>
</g>
<!-- randomness&#45;&gt;analyticsStore -->
<g id="edge50" class="edge">
<title>randomness&#45;&gt;analyticsStore</title>
<path fill="none" stroke="black" d="M1185.75,-431.88C1204.56,-422.47 1228.08,-410.71 1248.17,-400.67"/>
<polygon fill="black" stroke="black" points="1249.74,-403.79 1257.12,-396.19 1246.61,-397.53 1249.74,-403.79"/>
</g>
<!-- randomness&#45;&gt;engine -->
<g id="edge7" class="edge">
<title>randomness&#45;&gt;engine</title>
<path fill="none" stroke="black" d="M1099.31,-434.24C1096.33,-433.47 1093.38,-432.72 1090.5,-432 1017.65,-413.92 991.26,-432.18 925.5,-396 917.69,-391.71 883.76,-356.37 860.39,-331.54"/>
<polygon fill="black" stroke="black" points="862.91,-329.12 853.52,-324.22 857.81,-333.91 862.91,-329.12"/>
</g>
<!-- simulationGateway -->
<g id="node19" class="node">
<title>simulationGateway</title>
<path fill="none" stroke="black" d="M954.5,-252C954.5,-252 824.5,-252 824.5,-252 818.5,-252 812.5,-246 812.5,-240 812.5,-240 812.5,-228 812.5,-228 812.5,-222 818.5,-216 824.5,-216 824.5,-216 954.5,-216 954.5,-216 960.5,-216 966.5,-222 966.5,-228 966.5,-228 966.5,-240 966.5,-240 966.5,-246 960.5,-252 954.5,-252"/>
<text text-anchor="middle" x="889.5" y="-230.3" font-family="Times,serif" font-size="14.00">simulationGateway</text>
</g>
<!-- randomness&#45;&gt;simulationGateway -->
<g id="edge55" class="edge">
<title>randomness&#45;&gt;simulationGateway</title>
<path fill="none" stroke="black" d="M1128.94,-431.99C1097.68,-408.28 1039.61,-363.73 991.5,-324 965.42,-302.46 936.44,-277.02 916.05,-258.86"/>
<polygon fill="black" stroke="black" points="918.2,-256.09 908.41,-252.04 913.54,-261.32 918.2,-256.09"/>
</g>
<!-- frameRater -->
<g id="node7" class="node">
<title>frameRater</title>
<path fill="none" stroke="black" d="M824.5,-468C824.5,-468 750.5,-468 750.5,-468 744.5,-468 738.5,-462 738.5,-456 738.5,-456 738.5,-444 738.5,-444 738.5,-438 744.5,-432 750.5,-432 750.5,-432 824.5,-432 824.5,-432 830.5,-432 836.5,-438 836.5,-444 836.5,-444 836.5,-456 836.5,-456 836.5,-462 830.5,-468 824.5,-468"/>
<text text-anchor="middle" x="787.5" y="-446.3" font-family="Times,serif" font-size="14.00">frameRater</text>
</g>
<!-- frameRater&#45;&gt;engine -->
<g id="edge10" class="edge">
<title>frameRater&#45;&gt;engine</title>
<path fill="none" stroke="black" d="M791.07,-431.96C795.1,-413.82 802.32,-384.42 811.5,-360 814.86,-351.08 819.2,-341.64 823.38,-333.25"/>
<polygon fill="black" stroke="black" points="826.53,-334.79 827.96,-324.29 820.29,-331.6 826.53,-334.79"/>
</g>
<!-- frameRater&#45;&gt;updateLoop -->
<g id="edge33" class="edge">
<title>frameRater&#45;&gt;updateLoop</title>
<path fill="none" stroke="black" d="M808.82,-431.85C856.19,-393.74 970.28,-301.95 1024.26,-258.52"/>
<polygon fill="black" stroke="black" points="1026.48,-261.23 1032.08,-252.23 1022.09,-255.77 1026.48,-261.23"/>
</g>
<!-- frameRater&#45;&gt;renderer -->
<g id="edge20" class="edge">
<title>frameRater&#45;&gt;renderer</title>
<path fill="none" stroke="black" d="M764.03,-431.81C710.11,-392.48 572.93,-293.39 454.5,-216 438.66,-205.65 420.86,-194.69 405.51,-185.44"/>
<polygon fill="black" stroke="black" points="407.16,-182.35 396.79,-180.21 403.56,-188.36 407.16,-182.35"/>
</g>
<!-- profileStore -->
<g id="node8" class="node">
<title>profileStore</title>
<path fill="none" stroke="black" d="M944,-468C944,-468 867,-468 867,-468 861,-468 855,-462 855,-456 855,-456 855,-444 855,-444 855,-438 861,-432 867,-432 867,-432 944,-432 944,-432 950,-432 956,-438 956,-444 956,-444 956,-456 956,-456 956,-462 950,-468 944,-468"/>
<text text-anchor="middle" x="905.5" y="-446.3" font-family="Times,serif" font-size="14.00">profileStore</text>
</g>
<!-- profileStore&#45;&gt;simulationGateway -->
<g id="edge54" class="edge">
<title>profileStore&#45;&gt;simulationGateway</title>
<path fill="none" stroke="black" d="M904.22,-431.85C901.45,-394.83 894.9,-307.18 891.55,-262.39"/>
<polygon fill="black" stroke="black" points="895.02,-261.94 890.79,-252.23 888.04,-262.47 895.02,-261.94"/>
</g>
<!-- localBoidStore -->
<g id="node9" class="node">
<title>localBoidStore</title>
<path fill="none" stroke="black" d="M502,-468C502,-468 405,-468 405,-468 399,-468 393,-462 393,-456 393,-456 393,-444 393,-444 393,-438 399,-432 405,-432 405,-432 502,-432 502,-432 508,-432 514,-438 514,-444 514,-444 514,-456 514,-456 514,-462 508,-468 502,-468"/>
<text text-anchor="middle" x="453.5" y="-446.3" font-family="Times,serif" font-size="14.00">localBoidStore</text>
</g>
<!-- localBoidStore&#45;&gt;engine -->
<g id="edge8" class="edge">
<title>localBoidStore&#45;&gt;engine</title>
<path fill="none" stroke="black" d="M506.77,-431.91C537.52,-421.85 576.85,-408.66 611.5,-396 652.35,-381.08 662.03,-375.95 702.5,-360 733.59,-347.75 768.72,-333.96 795.35,-323.51"/>
<polygon fill="black" stroke="black" points="796.72,-326.74 804.76,-319.83 794.17,-320.22 796.72,-326.74"/>
</g>
<!-- localBoidStore&#45;&gt;webglRenderer -->
<g id="edge49" class="edge">
<title>localBoidStore&#45;&gt;webglRenderer</title>
<path fill="none" stroke="black" d="M397.38,-431.98C376.74,-423.63 354.32,-411.89 337.5,-396 297.34,-358.08 272.4,-296.91 260.62,-261.9"/>
<polygon fill="black" stroke="black" points="263.93,-260.77 257.51,-252.34 257.27,-262.94 263.93,-260.77"/>
</g>
<!-- localBoidStore&#45;&gt;simulationGateway -->
<g id="edge58" class="edge">
<title>localBoidStore&#45;&gt;simulationGateway</title>
<path fill="none" stroke="black" d="M478.65,-431.86C508.34,-412.26 559.74,-380.26 607.5,-360 661.12,-337.26 679.83,-346.61 733.5,-324 763.22,-311.48 768.49,-303.98 796.5,-288 814.2,-277.9 833.81,-266.72 850.44,-257.25"/>
<polygon fill="black" stroke="black" points="852.38,-260.17 859.34,-252.18 848.92,-254.09 852.38,-260.17"/>
</g>
<!-- localBoidStore&#45;&gt;renderer -->
<g id="edge18" class="edge">
<title>localBoidStore&#45;&gt;renderer</title>
<path fill="none" stroke="black" d="M411.02,-431.91C395.78,-423.49 380.23,-411.71 371.5,-396 369.04,-391.57 367.98,-251.13 367.64,-190.46"/>
<polygon fill="black" stroke="black" points="371.13,-190.1 367.58,-180.11 364.13,-190.13 371.13,-190.1"/>
</g>
<!-- analytics -->
<g id="node21" class="node">
<title>analytics</title>
<path fill="none" stroke="black" d="M841.5,-180C841.5,-180 785.5,-180 785.5,-180 779.5,-180 773.5,-174 773.5,-168 773.5,-168 773.5,-156 773.5,-156 773.5,-150 779.5,-144 785.5,-144 785.5,-144 841.5,-144 841.5,-144 847.5,-144 853.5,-150 853.5,-156 853.5,-156 853.5,-168 853.5,-168 853.5,-174 847.5,-180 841.5,-180"/>
<text text-anchor="middle" x="813.5" y="-158.3" font-family="Times,serif" font-size="14.00">analytics</text>
</g>
<!-- localBoidStore&#45;&gt;analytics -->
<g id="edge26" class="edge">
<title>localBoidStore&#45;&gt;analytics</title>
<path fill="none" stroke="black" d="M469.41,-431.83C479,-421.47 491.47,-407.99 502.5,-396 517.2,-380.03 519.22,-374.36 535.5,-360 615.77,-289.21 721.44,-220.08 776.51,-185.63"/>
<polygon fill="black" stroke="black" points="778.59,-188.46 785.22,-180.2 774.89,-182.51 778.59,-188.46"/>
</g>
<!-- sharedMemoryManager -->
<g id="node10" class="node">
<title>sharedMemoryManager</title>
<path fill="none" stroke="black" d="M708.5,-468C708.5,-468 544.5,-468 544.5,-468 538.5,-468 532.5,-462 532.5,-456 532.5,-456 532.5,-444 532.5,-444 532.5,-438 538.5,-432 544.5,-432 544.5,-432 708.5,-432 708.5,-432 714.5,-432 720.5,-438 720.5,-444 720.5,-444 720.5,-456 720.5,-456 720.5,-462 714.5,-468 708.5,-468"/>
<text text-anchor="middle" x="626.5" y="-446.3" font-family="Times,serif" font-size="14.00">sharedMemoryManager</text>
</g>
<!-- sharedMemoryManager&#45;&gt;engine -->
<g id="edge9" class="edge">
<title>sharedMemoryManager&#45;&gt;engine</title>
<path fill="none" stroke="black" d="M651.95,-431.87C689.89,-406.34 761.34,-358.25 803.65,-329.78"/>
<polygon fill="black" stroke="black" points="805.62,-332.68 811.96,-324.19 801.71,-326.87 805.62,-332.68"/>
</g>
<!-- sharedMemoryManager&#45;&gt;renderer -->
<g id="edge19" class="edge">
<title>sharedMemoryManager&#45;&gt;renderer</title>
<path fill="none" stroke="black" d="M612.65,-431.78C580.74,-392.4 499.07,-293.21 424.5,-216 415.02,-206.18 404.15,-195.86 394.46,-186.96"/>
<polygon fill="black" stroke="black" points="396.74,-184.31 386.99,-180.17 392.03,-189.49 396.74,-184.31"/>
</g>
<!-- workerTasks -->
<g id="node11" class="node">
<title>workerTasks</title>
<path fill="none" stroke="black" d="M1069,-468C1069,-468 986,-468 986,-468 980,-468 974,-462 974,-456 974,-456 974,-444 974,-444 974,-438 980,-432 986,-432 986,-432 1069,-432 1069,-432 1075,-432 1081,-438 1081,-444 1081,-444 1081,-456 1081,-456 1081,-462 1075,-468 1069,-468"/>
<text text-anchor="middle" x="1027.5" y="-446.3" font-family="Times,serif" font-size="14.00">workerTasks</text>
</g>
<!-- workerTasks&#45;&gt;engine -->
<g id="edge4" class="edge">
<title>workerTasks&#45;&gt;engine</title>
<path fill="none" stroke="black" d="M973.99,-432.93C940.43,-422.08 901.05,-407.65 887.5,-396 868.16,-379.37 854.77,-353.31 846.74,-333.68"/>
<polygon fill="black" stroke="black" points="849.9,-332.15 843.03,-324.08 843.37,-334.67 849.9,-332.15"/>
</g>
<!-- workerTasks&#45;&gt;simulation -->
<g id="edge37" class="edge">
<title>workerTasks&#45;&gt;simulation</title>
<path fill="none" stroke="black" d="M1040.43,-431.61C1082.53,-374.02 1210.58,-190.5 1168.5,-144 1137.16,-109.37 825.2,-96.39 695.06,-92.46"/>
<polygon fill="black" stroke="black" points="694.99,-88.95 684.9,-92.16 694.79,-95.95 694.99,-88.95"/>
</g>
<!-- runtimeStore&#45;&gt;camera -->
<g id="edge3" class="edge">
<title>runtimeStore&#45;&gt;camera</title>
<path fill="none" stroke="black" d="M379.76,-361.72C332.08,-348.89 264.87,-330.79 221,-318.98"/>
<polygon fill="black" stroke="black" points="221.76,-315.56 211.19,-316.34 219.94,-322.32 221.76,-315.56"/>
</g>
<!-- runtimeStore&#45;&gt;engine -->
<g id="edge5" class="edge">
<title>runtimeStore&#45;&gt;engine</title>
<path fill="none" stroke="black" d="M493.1,-367.12C574.28,-352.95 721.97,-327.17 794.7,-314.47"/>
<polygon fill="black" stroke="black" points="795.62,-317.86 804.87,-312.7 794.41,-310.97 795.62,-317.86"/>
</g>
<!-- runtimeStore&#45;&gt;webglRenderer -->
<g id="edge46" class="edge">
<title>runtimeStore&#45;&gt;webglRenderer</title>
<path fill="none" stroke="black" d="M414.31,-359.87C381.43,-334.5 319.69,-286.85 282.72,-258.32"/>
<polygon fill="black" stroke="black" points="284.83,-255.53 274.77,-252.19 280.55,-261.07 284.83,-255.53"/>
</g>
<!-- runtimeStore&#45;&gt;simulationGateway -->
<g id="edge52" class="edge">
<title>runtimeStore&#45;&gt;simulationGateway</title>
<path fill="none" stroke="black" d="M493.02,-367.48C542.13,-358.51 614.87,-343.53 676.5,-324 716,-311.48 724.27,-303.98 762.5,-288 787.78,-277.43 815.9,-265.7 839.25,-255.96"/>
<polygon fill="black" stroke="black" points="840.72,-259.14 848.6,-252.05 838.02,-252.67 840.72,-259.14"/>
</g>
<!-- runtimeStore&#45;&gt;renderer -->
<g id="edge14" class="edge">
<title>runtimeStore&#45;&gt;renderer</title>
<path fill="none" stroke="black" d="M435.61,-359.84C433.52,-329.62 426.75,-265.42 405.5,-216 401.38,-206.43 395.32,-196.89 389.23,-188.6"/>
<polygon fill="black" stroke="black" points="391.84,-186.24 382.97,-180.45 386.29,-190.51 391.84,-186.24"/>
</g>
<!-- runtimeStore&#45;&gt;analytics -->
<g id="edge24" class="edge">
<title>runtimeStore&#45;&gt;analytics</title>
<path fill="none" stroke="black" d="M473.05,-359.81C488.94,-350.9 506.79,-338.78 519.5,-324 553.75,-284.18 526.74,-249.13 567.5,-216 597.05,-191.99 700.39,-176.11 763.35,-168.41"/>
<polygon fill="black" stroke="black" points="763.96,-171.87 773.47,-167.2 763.13,-164.91 763.96,-171.87"/>
</g>
<!-- runtimeStore&#45;&gt;atmosphere -->
<g id="edge30" class="edge">
<title>runtimeStore&#45;&gt;atmosphere</title>
<path fill="none" stroke="black" d="M472.53,-359.86C551.29,-322.62 737.05,-236.03 803.5,-216 886.37,-191.02 985.67,-176.5 1047.94,-169.16"/>
<polygon fill="black" stroke="black" points="1048.45,-172.62 1057.98,-168 1047.65,-165.67 1048.45,-172.62"/>
</g>
<!-- runtimeStore&#45;&gt;simulation -->
<g id="edge39" class="edge">
<title>runtimeStore&#45;&gt;simulation</title>
<path fill="none" stroke="black" d="M452.9,-359.6C461.9,-349.6 472.93,-336.57 481.5,-324 512.19,-278.98 509.58,-261.53 539.5,-216 563.54,-179.42 595.65,-140.34 616.69,-115.8"/>
<polygon fill="black" stroke="black" points="619.49,-117.92 623.38,-108.06 614.19,-113.34 619.49,-117.92"/>
</g>
<!-- shortcuts -->
<g id="node24" class="node">
<title>shortcuts</title>
<path fill="none" stroke="black" d="M534.5,-36C534.5,-36 474.5,-36 474.5,-36 468.5,-36 462.5,-30 462.5,-24 462.5,-24 462.5,-12 462.5,-12 462.5,-6 468.5,0 474.5,0 474.5,0 534.5,0 534.5,0 540.5,0 546.5,-6 546.5,-12 546.5,-12 546.5,-24 546.5,-24 546.5,-30 540.5,-36 534.5,-36"/>
<text text-anchor="middle" x="504.5" y="-14.3" font-family="Times,serif" font-size="14.00">shortcuts</text>
</g>
<!-- runtimeStore&#45;&gt;shortcuts -->
<g id="edge28" class="edge">
<title>runtimeStore&#45;&gt;shortcuts</title>
<path fill="none" stroke="black" d="M442.77,-359.78C451.83,-333.32 467.5,-280.92 467.5,-235 467.5,-235 467.5,-235 467.5,-161 467.5,-119.71 482.33,-73.77 493.22,-45.63"/>
<polygon fill="black" stroke="black" points="496.56,-46.7 497.01,-36.11 490.06,-44.11 496.56,-46.7"/>
</g>
<!-- timer&#45;&gt;simulationGateway -->
<g id="edge56" class="edge">
<title>timer&#45;&gt;simulationGateway</title>
<path fill="none" stroke="black" d="M1119.22,-360.42C1088.11,-342.29 1036.54,-312.54 991.5,-288 972.16,-277.46 950.54,-266.16 932.2,-256.71"/>
<polygon fill="black" stroke="black" points="933.71,-253.55 923.21,-252.1 930.51,-259.78 933.71,-253.55"/>
</g>
<!-- analyticsStore&#45;&gt;simulationGateway -->
<g id="edge53" class="edge">
<title>analyticsStore&#45;&gt;simulationGateway</title>
<path fill="none" stroke="black" d="M1243.01,-359.87C1168.81,-333.66 1027.35,-283.69 947.72,-255.56"/>
<polygon fill="black" stroke="black" points="948.44,-252.11 937.85,-252.08 946.11,-258.71 948.44,-252.11"/>
</g>
<!-- analyticsStore&#45;&gt;analytics -->
<g id="edge25" class="edge">
<title>analyticsStore&#45;&gt;analytics</title>
<path fill="none" stroke="black" d="M1278.22,-359.76C1251.23,-326.05 1186.3,-251.62 1113.5,-216 1032.21,-176.22 925.57,-165.94 863.78,-163.5"/>
<polygon fill="black" stroke="black" points="863.63,-159.99 853.52,-163.15 863.39,-166.99 863.63,-159.99"/>
</g>
<!-- analyticsStore&#45;&gt;atmosphere -->
<g id="edge31" class="edge">
<title>analyticsStore&#45;&gt;atmosphere</title>
<path fill="none" stroke="black" d="M1289.57,-359.91C1285.03,-327.46 1270.72,-256.53 1229.5,-216 1212.77,-199.55 1190.08,-187.78 1168.87,-179.58"/>
<polygon fill="black" stroke="black" points="1169.85,-176.21 1159.25,-176.06 1167.44,-182.78 1169.85,-176.21"/>
</g>
<!-- camera&#45;&gt;webglRenderer -->
<g id="edge45" class="edge">
<title>camera&#45;&gt;webglRenderer</title>
<path fill="none" stroke="black" d="M195.29,-287.7C204.67,-279.05 216.18,-268.45 226.41,-259.03"/>
<polygon fill="black" stroke="black" points="228.95,-261.45 233.93,-252.1 224.2,-256.3 228.95,-261.45"/>
</g>
<!-- camera&#45;&gt;renderer -->
<g id="edge13" class="edge">
<title>camera&#45;&gt;renderer</title>
<path fill="none" stroke="black" d="M171.87,-287.9C167.69,-268.33 164.37,-236.37 180.5,-216 197.5,-194.53 268.12,-178.98 317.53,-170.47"/>
<polygon fill="black" stroke="black" points="318.13,-173.92 327.42,-168.82 316.98,-167.02 318.13,-173.92"/>
</g>
<!-- camera&#45;&gt;simulation -->
<g id="edge38" class="edge">
<title>camera&#45;&gt;simulation</title>
<path fill="none" stroke="black" d="M167.94,-287.83C159.78,-268.77 150.6,-237.84 164.5,-216 205.06,-152.26 246.34,-166.38 318.5,-144 408.48,-116.09 517.52,-102.03 582.28,-95.63"/>
<polygon fill="black" stroke="black" points="582.66,-99.11 592.28,-94.67 581.99,-92.14 582.66,-99.11"/>
</g>
<!-- engine&#45;&gt;updateLoop -->
<g id="edge34" class="edge">
<title>engine&#45;&gt;updateLoop</title>
<path fill="none" stroke="black" d="M870.31,-294.37C902.8,-283.84 953.31,-267.47 993.07,-254.58"/>
<polygon fill="black" stroke="black" points="994.24,-257.88 1002.67,-251.47 992.08,-251.22 994.24,-257.88"/>
</g>
<!-- engine&#45;&gt;simulationGateway -->
<g id="edge57" class="edge">
<title>engine&#45;&gt;simulationGateway</title>
<path fill="none" stroke="black" d="M850.35,-287.7C856.53,-279.39 864.04,-269.28 870.82,-260.14"/>
<polygon fill="black" stroke="black" points="873.64,-262.22 876.79,-252.1 868.02,-258.04 873.64,-262.22"/>
</g>
<!-- engine&#45;&gt;simulation -->
<g id="edge36" class="edge">
<title>engine&#45;&gt;simulation</title>
<path fill="none" stroke="black" d="M821.55,-287.85C786.4,-250.05 702.15,-159.45 661.38,-115.6"/>
<polygon fill="black" stroke="black" points="663.9,-113.17 654.52,-108.23 658.77,-117.94 663.9,-113.17"/>
</g>
<!-- webglRenderer&#45;&gt;renderer -->
<g id="edge16" class="edge">
<title>webglRenderer&#45;&gt;renderer</title>
<path fill="none" stroke="black" d="M280.63,-215.88C295.67,-206.72 314.37,-195.34 330.56,-185.48"/>
<polygon fill="black" stroke="black" points="332.54,-188.38 339.26,-180.19 328.9,-182.4 332.54,-188.38"/>
</g>
<!-- simulationGateway&#45;&gt;analytics -->
<g id="edge23" class="edge">
<title>simulationGateway&#45;&gt;analytics</title>
<path fill="none" stroke="black" d="M870.71,-215.7C861.33,-207.05 849.82,-196.45 839.59,-187.03"/>
<polygon fill="black" stroke="black" points="841.8,-184.3 832.07,-180.1 837.05,-189.45 841.8,-184.3"/>
</g>
<!-- simulationGateway&#45;&gt;atmosphere -->
<g id="edge29" class="edge">
<title>simulationGateway&#45;&gt;atmosphere</title>
<path fill="none" stroke="black" d="M942.79,-215.97C974.71,-205.76 1015.38,-192.77 1048.43,-182.2"/>
<polygon fill="black" stroke="black" points="1049.52,-185.53 1057.98,-179.15 1047.39,-178.86 1049.52,-185.53"/>
</g>
<!-- simulationGateway&#45;&gt;simulation -->
<g id="edge40" class="edge">
<title>simulationGateway&#45;&gt;simulation</title>
<path fill="none" stroke="black" d="M889.18,-215.98C887.85,-195.88 882.5,-162.8 862.5,-144 838.6,-121.54 753.26,-106.09 695.09,-97.9"/>
<polygon fill="black" stroke="black" points="695.31,-94.4 684.93,-96.5 694.36,-101.33 695.31,-94.4"/>
</g>
<!-- renderer&#45;&gt;simulation -->
<g id="edge41" class="edge">
<title>renderer&#45;&gt;simulation</title>
<path fill="none" stroke="black" d="M407.78,-150.6C454.04,-138.65 530.26,-118.96 582.33,-105.51"/>
<polygon fill="black" stroke="black" points="583.28,-108.88 592.09,-102.99 581.53,-102.1 583.28,-108.88"/>
</g>
<!-- simulation&#45;&gt;shortcuts -->
<g id="edge27" class="edge">
<title>simulation&#45;&gt;shortcuts</title>
<path fill="none" stroke="black" d="M605.72,-71.88C587.87,-62.55 565.6,-50.92 546.5,-40.94"/>
<polygon fill="black" stroke="black" points="547.89,-37.72 537.41,-36.19 544.65,-43.92 547.89,-37.72"/>
</g>
</g>
</svg>
