<?xml version="1.0" encoding="UTF-8" standalone="no"?>
<!DOCTYPE svg PUBLIC "-//W3C//DTD SVG 1.1//EN"
 "http://www.w3.org/Graphics/SVG/1.1/DTD/svg11.dtd">
<!-- Generated by graphviz version 2.43.0 (0)
 -->
<!-- Title: SystemTopology Pages: 1 -->
<svg width="1430pt" height="476pt"
 viewBox="0.00 0.00 1429.63 476.00" xmlns="http://www.w3.org/2000/svg" xmlns:xlink="http://www.w3.org/1999/xlink">
<g id="graph0" class="graph" transform="scale(1 1) rotate(0) translate(4 472)">
<title>SystemTopology</title>
<polygon fill="white" stroke="transparent" points="-4,4 -4,-472 1425.63,-472 1425.63,4 -4,4"/>
<!-- config -->
<g id="node1" class="node">
<title>config</title>
<path fill="none" stroke="black" d="M237.13,-468C237.13,-468 202.13,-468 202.13,-468 196.13,-468 190.13,-462 190.13,-456 190.13,-456 190.13,-444 190.13,-444 190.13,-438 196.13,-432 202.13,-432 202.13,-432 237.13,-432 237.13,-432 243.13,-432 249.13,-438 249.13,-444 249.13,-444 249.13,-456 249.13,-456 249.13,-462 243.13,-468 237.13,-468"/>
<text text-anchor="middle" x="219.63" y="-446.3" font-family="Times,serif" font-size="14.00">config</text>
</g>
<!-- runtimeStore -->
<g id="node11" class="node">
<title>runtimeStore</title>
<path fill="none" stroke="black" d="M584.13,-396C584.13,-396 495.13,-396 495.13,-396 489.13,-396 483.13,-390 483.13,-384 483.13,-384 483.13,-372 483.13,-372 483.13,-366 489.13,-360 495.13,-360 495.13,-360 584.13,-360 584.13,-360 590.13,-360 596.13,-366 596.13,-372 596.13,-372 596.13,-384 596.13,-384 596.13,-390 590.13,-396 584.13,-396"/>
<text text-anchor="middle" x="539.63" y="-374.3" font-family="Times,serif" font-size="14.00">runtimeStore</text>
</g>
<!-- config&#45;&gt;runtimeStore -->
<g id="edge43" class="edge">
<title>config&#45;&gt;runtimeStore</title>
<path fill="none" stroke="black" d="M249.38,-435.84C253.13,-434.42 256.94,-433.1 260.63,-432 331.82,-410.73 415.88,-396.13 472.99,-387.73"/>
<polygon fill="black" stroke="black" points="473.58,-391.18 482.97,-386.28 472.57,-384.25 473.58,-391.18"/>
</g>
<!-- renderer -->
<g id="node18" class="node">
<title>renderer</title>
<path fill="none" stroke="black" d="M379.63,-180C379.63,-180 323.63,-180 323.63,-180 317.63,-180 311.63,-174 311.63,-168 311.63,-168 311.63,-156 311.63,-156 311.63,-150 317.63,-144 323.63,-144 323.63,-144 379.63,-144 379.63,-144 385.63,-144 391.63,-150 391.63,-156 391.63,-156 391.63,-168 391.63,-168 391.63,-174 385.63,-180 379.63,-180"/>
<text text-anchor="middle" x="351.63" y="-158.3" font-family="Times,serif" font-size="14.00">renderer</text>
</g>
<!-- config&#45;&gt;renderer -->
<g id="edge20" class="edge">
<title>config&#45;&gt;renderer</title>
<path fill="none" stroke="black" d="M207.61,-431.81C180.2,-390.33 119.22,-283.18 169.63,-216 185.53,-194.8 253.45,-179.3 301.65,-170.72"/>
<polygon fill="black" stroke="black" points="302.36,-174.15 311.61,-168.99 301.16,-167.25 302.36,-174.15"/>
</g>
<!-- time -->
<g id="node2" class="node">
<title>time</title>
<path fill="none" stroke="black" d="M933.63,-468C933.63,-468 903.63,-468 903.63,-468 897.63,-468 891.63,-462 891.63,-456 891.63,-456 891.63,-444 891.63,-444 891.63,-438 897.63,-432 903.63,-432 903.63,-432 933.63,-432 933.63,-432 939.63,-432 945.63,-438 945.63,-444 945.63,-444 945.63,-456 945.63,-456 945.63,-462 939.63,-468 933.63,-468"/>
<text text-anchor="middle" x="918.63" y="-446.3" font-family="Times,serif" font-size="14.00">time</text>
</g>
<!-- timer -->
<g id="node12" class="node">
<title>timer</title>
<path fill="none" stroke="black" d="M962.63,-396C962.63,-396 930.63,-396 930.63,-396 924.63,-396 918.63,-390 918.63,-384 918.63,-384 918.63,-372 918.63,-372 918.63,-366 924.63,-360 930.63,-360 930.63,-360 962.63,-360 962.63,-360 968.63,-360 974.63,-366 974.63,-372 974.63,-372 974.63,-384 974.63,-384 974.63,-390 968.63,-396 962.63,-396"/>
<text text-anchor="middle" x="946.63" y="-374.3" font-family="Times,serif" font-size="14.00">timer</text>
</g>
<!-- time&#45;&gt;timer -->
<g id="edge1" class="edge">
<title>time&#45;&gt;timer</title>
<path fill="none" stroke="black" d="M925.55,-431.7C928.71,-423.81 932.51,-414.3 936.01,-405.55"/>
<polygon fill="black" stroke="black" points="939.32,-406.69 939.79,-396.1 932.82,-404.09 939.32,-406.69"/>
</g>
<!-- analyticsStore -->
<g id="node13" class="node">
<title>analyticsStore</title>
<path fill="none" stroke="black" d="M1214.13,-396C1214.13,-396 1119.13,-396 1119.13,-396 1113.13,-396 1107.13,-390 1107.13,-384 1107.13,-384 1107.13,-372 1107.13,-372 1107.13,-366 1113.13,-360 1119.13,-360 1119.13,-360 1214.13,-360 1214.13,-360 1220.13,-360 1226.13,-366 1226.13,-372 1226.13,-372 1226.13,-384 1226.13,-384 1226.13,-390 1220.13,-396 1214.13,-396"/>
<text text-anchor="middle" x="1166.63" y="-374.3" font-family="Times,serif" font-size="14.00">analyticsStore</text>
</g>
<!-- time&#45;&gt;analyticsStore -->
<g id="edge51" class="edge">
<title>time&#45;&gt;analyticsStore</title>
<path fill="none" stroke="black" d="M945.64,-441.38C981.72,-431.19 1046.9,-412.79 1097.16,-398.61"/>
<polygon fill="black" stroke="black" points="1098.33,-401.92 1107,-395.83 1096.43,-395.18 1098.33,-401.92"/>
</g>
<!-- engine -->
<g id="node15" class="node">
<title>engine</title>
<path fill="none" stroke="black" d="M840.13,-324C840.13,-324 799.13,-324 799.13,-324 793.13,-324 787.13,-318 787.13,-312 787.13,-312 787.13,-300 787.13,-300 787.13,-294 793.13,-288 799.13,-288 799.13,-288 840.13,-288 840.13,-288 846.13,-288 852.13,-294 852.13,-300 852.13,-300 852.13,-312 852.13,-312 852.13,-318 846.13,-324 840.13,-324"/>
<text text-anchor="middle" x="819.63" y="-302.3" font-family="Times,serif" font-size="14.00">engine</text>
</g>
<!-- time&#45;&gt;engine -->
<g id="edge7" class="edge">
<title>time&#45;&gt;engine</title>
<path fill="none" stroke="black" d="M904.18,-431.67C895.86,-421.48 885.36,-408.23 876.63,-396 861.83,-375.27 846.33,-350.85 835.23,-332.85"/>
<polygon fill="black" stroke="black" points="838.06,-330.77 829.85,-324.06 832.09,-334.42 838.06,-330.77"/>
</g>
<!-- webglRenderer -->
<g id="node16" class="node">
<title>webglRenderer</title>
<path fill="none" stroke="black" d="M292.63,-252C292.63,-252 190.63,-252 190.63,-252 184.63,-252 178.63,-246 178.63,-240 178.63,-240 178.63,-228 178.63,-228 178.63,-222 184.63,-216 190.63,-216 190.63,-216 292.63,-216 292.63,-216 298.63,-216 304.63,-222 304.63,-228 304.63,-228 304.63,-240 304.63,-240 304.63,-246 298.63,-252 292.63,-252"/>
<text text-anchor="middle" x="241.63" y="-230.3" font-family="Times,serif" font-size="14.00">webglRenderer</text>
</g>
<!-- time&#45;&gt;webglRenderer -->
<g id="edge47" class="edge">
<title>time&#45;&gt;webglRenderer</title>
<path fill="none" stroke="black" d="M891.43,-446.52C800.97,-438.18 513.7,-410.78 474.63,-396 390.34,-364.11 307.32,-295.36 266.95,-258.87"/>
<polygon fill="black" stroke="black" points="269.2,-256.19 259.46,-252.03 264.48,-261.36 269.2,-256.19"/>
</g>
<!-- time&#45;&gt;renderer -->
<g id="edge14" class="edge">
<title>time&#45;&gt;renderer</title>
<path fill="none" stroke="black" d="M891.25,-432.41C824.35,-392.25 646.64,-287.81 490.63,-216 461.59,-202.63 428.13,-189.8 401.32,-180.11"/>
<polygon fill="black" stroke="black" points="402.35,-176.76 391.76,-176.69 399.99,-183.35 402.35,-176.76"/>
</g>
<!-- atmosphere -->
<g id="node20" class="node">
<title>atmosphere</title>
<path fill="none" stroke="black" d="M958.13,-180C958.13,-180 881.13,-180 881.13,-180 875.13,-180 869.13,-174 869.13,-168 869.13,-168 869.13,-156 869.13,-156 869.13,-150 875.13,-144 881.13,-144 881.13,-144 958.13,-144 958.13,-144 964.13,-144 970.13,-150 970.13,-156 970.13,-156 970.13,-168 970.13,-168 970.13,-174 964.13,-180 958.13,-180"/>
<text text-anchor="middle" x="919.63" y="-158.3" font-family="Times,serif" font-size="14.00">atmosphere</text>
</g>
<!-- time&#45;&gt;atmosphere -->
<g id="edge31" class="edge">
<title>time&#45;&gt;atmosphere</title>
<path fill="none" stroke="black" d="M914.98,-431.91C912.95,-421.57 910.65,-408.09 909.63,-396 903.37,-321.8 911.27,-233.96 916.21,-190.37"/>
<polygon fill="black" stroke="black" points="919.71,-190.62 917.39,-180.28 912.75,-189.8 919.71,-190.62"/>
</g>
<!-- updateLoop -->
<g id="node21" class="node">
<title>updateLoop</title>
<path fill="none" stroke="black" d="M1089.13,-180C1089.13,-180 1012.13,-180 1012.13,-180 1006.13,-180 1000.13,-174 1000.13,-168 1000.13,-168 1000.13,-156 1000.13,-156 1000.13,-150 1006.13,-144 1012.13,-144 1012.13,-144 1089.13,-144 1089.13,-144 1095.13,-144 1101.13,-150 1101.13,-156 1101.13,-156 1101.13,-168 1101.13,-168 1101.13,-174 1095.13,-180 1089.13,-180"/>
<text text-anchor="middle" x="1050.63" y="-158.3" font-family="Times,serif" font-size="14.00">updateLoop</text>
</g>
<!-- time&#45;&gt;updateLoop -->
<g id="edge34" class="edge">
<title>time&#45;&gt;updateLoop</title>
<path fill="none" stroke="black" d="M945.67,-444.68C1021.87,-432.49 1232.98,-398.52 1235.63,-396 1293.97,-340.68 1302.78,-279.63 1253.63,-216 1236.27,-193.52 1164.73,-178.76 1111.46,-170.66"/>
<polygon fill="black" stroke="black" points="1111.81,-167.17 1101.41,-169.17 1110.79,-174.1 1111.81,-167.17"/>
</g>
<!-- simulation -->
<g id="node22" class="node">
<title>simulation</title>
<path fill="none" stroke="black" d="M735.63,-108C735.63,-108 667.63,-108 667.63,-108 661.63,-108 655.63,-102 655.63,-96 655.63,-96 655.63,-84 655.63,-84 655.63,-78 661.63,-72 667.63,-72 667.63,-72 735.63,-72 735.63,-72 741.63,-72 747.63,-78 747.63,-84 747.63,-84 747.63,-96 747.63,-96 747.63,-102 741.63,-108 735.63,-108"/>
<text text-anchor="middle" x="701.63" y="-86.3" font-family="Times,serif" font-size="14.00">simulation</text>
</g>
<!-- time&#45;&gt;simulation -->
<g id="edge37" class="edge">
<title>time&#45;&gt;simulation</title>
<path fill="none" stroke="black" d="M945.95,-444.71C967.99,-441.25 999.8,-436.28 1027.63,-432 1187.17,-407.44 1368.63,-468.42 1368.63,-307 1368.63,-307 1368.63,-307 1368.63,-233 1368.63,-108.53 918.69,-92.73 757.9,-91.06"/>
<polygon fill="black" stroke="black" points="757.77,-87.56 747.74,-90.97 757.71,-94.56 757.77,-87.56"/>
</g>
<!-- canvas -->
<g id="node3" class="node">
<title>canvas</title>
<path fill="none" stroke="black" d="M70.13,-468C70.13,-468 29.13,-468 29.13,-468 23.13,-468 17.13,-462 17.13,-456 17.13,-456 17.13,-444 17.13,-444 17.13,-438 23.13,-432 29.13,-432 29.13,-432 70.13,-432 70.13,-432 76.13,-432 82.13,-438 82.13,-444 82.13,-444 82.13,-456 82.13,-456 82.13,-462 76.13,-468 70.13,-468"/>
<text text-anchor="middle" x="49.63" y="-446.3" font-family="Times,serif" font-size="14.00">canvas</text>
</g>
<!-- camera -->
<g id="node14" class="node">
<title>camera</title>
<path fill="none" stroke="black" d="M72.13,-324C72.13,-324 27.13,-324 27.13,-324 21.13,-324 15.13,-318 15.13,-312 15.13,-312 15.13,-300 15.13,-300 15.13,-294 21.13,-288 27.13,-288 27.13,-288 72.13,-288 72.13,-288 78.13,-288 84.13,-294 84.13,-300 84.13,-300 84.13,-312 84.13,-312 84.13,-318 78.13,-324 72.13,-324"/>
<text text-anchor="middle" x="49.63" y="-302.3" font-family="Times,serif" font-size="14.00">camera</text>
</g>
<!-- canvas&#45;&gt;camera -->
<g id="edge2" class="edge">
<title>canvas&#45;&gt;camera</title>
<path fill="none" stroke="black" d="M49.63,-431.87C49.63,-407.67 49.63,-363.21 49.63,-334.39"/>
<polygon fill="black" stroke="black" points="53.13,-334.19 49.63,-324.19 46.13,-334.19 53.13,-334.19"/>
</g>
<!-- canvas&#45;&gt;webglRenderer -->
<g id="edge44" class="edge">
<title>canvas&#45;&gt;webglRenderer</title>
<path fill="none" stroke="black" d="M65.02,-431.85C98.86,-394.13 179.88,-303.83 219.31,-259.88"/>
<polygon fill="black" stroke="black" points="222.1,-262.01 226.17,-252.23 216.89,-257.34 222.1,-262.01"/>
</g>
<!-- canvas&#45;&gt;renderer -->
<g id="edge11" class="edge">
<title>canvas&#45;&gt;renderer</title>
<path fill="none" stroke="black" d="M38.09,-431.81C19.62,-402.08 -12.7,-339.3 5.63,-288 19.55,-249.04 29.01,-237.04 64.63,-216 103.93,-192.79 230.03,-176 301.31,-168.09"/>
<polygon fill="black" stroke="black" points="301.86,-171.55 311.42,-166.99 301.1,-164.59 301.86,-171.55"/>
</g>
<!-- atlases -->
<g id="node4" class="node">
<title>atlases</title>
<path fill="none" stroke="black" d="M156.13,-468C156.13,-468 113.13,-468 113.13,-468 107.13,-468 101.13,-462 101.13,-456 101.13,-456 101.13,-444 101.13,-444 101.13,-438 107.13,-432 113.13,-432 113.13,-432 156.13,-432 156.13,-432 162.13,-432 168.13,-438 168.13,-444 168.13,-444 168.13,-456 168.13,-456 168.13,-462 162.13,-468 156.13,-468"/>
<text text-anchor="middle" x="134.63" y="-446.3" font-family="Times,serif" font-size="14.00">atlases</text>
</g>
<!-- atlases&#45;&gt;webglRenderer -->
<g id="edge48" class="edge">
<title>atlases&#45;&gt;webglRenderer</title>
<path fill="none" stroke="black" d="M164.95,-431.87C178.37,-422.84 193.21,-410.59 202.63,-396 229.37,-354.57 237.79,-296.42 240.43,-262.53"/>
<polygon fill="black" stroke="black" points="243.93,-262.64 241.1,-252.43 236.94,-262.18 243.93,-262.64"/>
</g>
<!-- atlases&#45;&gt;renderer -->
<g id="edge16" class="edge">
<title>atlases&#45;&gt;renderer</title>
<path fill="none" stroke="black" d="M129.73,-431.96C118.74,-389.88 97.04,-279.82 149.63,-216 168.8,-192.74 248.29,-177.33 301.65,-169.39"/>
<polygon fill="black" stroke="black" points="302.23,-172.85 311.62,-167.95 301.23,-165.92 302.23,-172.85"/>
</g>
<!-- profiler -->
<g id="node5" class="node">
<title>profiler</title>
<path fill="none" stroke="black" d="M326.13,-468C326.13,-468 281.13,-468 281.13,-468 275.13,-468 269.13,-462 269.13,-456 269.13,-456 269.13,-444 269.13,-444 269.13,-438 275.13,-432 281.13,-432 281.13,-432 326.13,-432 326.13,-432 332.13,-432 338.13,-438 338.13,-444 338.13,-444 338.13,-456 338.13,-456 338.13,-462 332.13,-468 326.13,-468"/>
<text text-anchor="middle" x="303.63" y="-446.3" font-family="Times,serif" font-size="14.00">profiler</text>
</g>
<!-- profiler&#45;&gt;engine -->
<g id="edge5" class="edge">
<title>profiler&#45;&gt;engine</title>
<path fill="none" stroke="black" d="M338.27,-435.04C341.74,-433.91 345.23,-432.87 348.63,-432 460.38,-403.44 494.37,-426.39 605.63,-396 667.52,-379.09 735.33,-348.72 777.68,-328.22"/>
<polygon fill="black" stroke="black" points="779.38,-331.28 786.83,-323.75 776.31,-324.99 779.38,-331.28"/>
</g>
<!-- profiler&#45;&gt;renderer -->
<g id="edge21" class="edge">
<title>profiler&#45;&gt;renderer</title>
<path fill="none" stroke="black" d="M297.68,-431.62C288.34,-401.58 272.86,-338.36 288.63,-288 294.45,-269.41 304.2,-269.05 313.63,-252 324.76,-231.87 334.86,-207.82 341.84,-189.8"/>
<polygon fill="black" stroke="black" points="345.2,-190.81 345.48,-180.22 338.65,-188.32 345.2,-190.81"/>
</g>
<!-- randomness -->
<g id="node6" class="node">
<title>randomness</title>
<path fill="none" stroke="black" d="M1128.63,-468C1128.63,-468 1048.63,-468 1048.63,-468 1042.63,-468 1036.63,-462 1036.63,-456 1036.63,-456 1036.63,-444 1036.63,-444 1036.63,-438 1042.63,-432 1048.63,-432 1048.63,-432 1128.63,-432 1128.63,-432 1134.63,-432 1140.63,-438 1140.63,-444 1140.63,-444 1140.63,-456 1140.63,-456 1140.63,-462 1134.63,-468 1128.63,-468"/>
<text text-anchor="middle" x="1088.63" y="-446.3" font-family="Times,serif" font-size="14.00">randomness</text>
</g>
<!-- randomness&#45;&gt;analyticsStore -->
<g id="edge50" class="edge">
<title>randomness&#45;&gt;analyticsStore</title>
<path fill="none" stroke="black" d="M1107.91,-431.7C1117.55,-423.05 1129.36,-412.45 1139.86,-403.03"/>
<polygon fill="black" stroke="black" points="1142.47,-405.39 1147.57,-396.1 1137.79,-400.18 1142.47,-405.39"/>
</g>
<!-- randomness&#45;&gt;engine -->
<g id="edge6" class="edge">
<title>randomness&#45;&gt;engine</title>
<path fill="none" stroke="black" d="M1068.47,-431.74C1038.65,-406.24 986.02,-361.33 983.63,-360 945.13,-338.57 896.65,-324.26 862.42,-315.96"/>
<polygon fill="black" stroke="black" points="862.81,-312.46 852.28,-313.58 861.21,-319.28 862.81,-312.46"/>
</g>
<!-- simulationGateway -->
<g id="node17" class="node">
<title>simulationGateway</title>
<path fill="none" stroke="black" d="M1115.63,-252C1115.63,-252 985.63,-252 985.63,-252 979.63,-252 973.63,-246 973.63,-240 973.63,-240 973.63,-228 973.63,-228 973.63,-222 979.63,-216 985.63,-216 985.63,-216 1115.63,-216 1115.63,-216 1121.63,-216 1127.63,-222 1127.63,-228 1127.63,-228 1127.63,-240 1127.63,-240 1127.63,-246 1121.63,-252 1115.63,-252"/>
<text text-anchor="middle" x="1050.63" y="-230.3" font-family="Times,serif" font-size="14.00">simulationGateway</text>
</g>
<!-- randomness&#45;&gt;simulationGateway -->
<g id="edge55" class="edge">
<title>randomness&#45;&gt;simulationGateway</title>
<path fill="none" stroke="black" d="M1085.58,-431.85C1079,-394.75 1063.38,-306.81 1055.44,-262.1"/>
<polygon fill="black" stroke="black" points="1058.88,-261.47 1053.69,-252.23 1051.99,-262.69 1058.88,-261.47"/>
</g>
<!-- randomness&#45;&gt;simulation -->
<g id="edge42" class="edge">
<title>randomness&#45;&gt;simulation</title>
<path fill="none" stroke="black" d="M1140.7,-440.29C1217.37,-427.25 1352.51,-403.41 1360.63,-396 1420.16,-341.67 1413.98,-290.25 1382.63,-216 1364.78,-173.73 1350.35,-163.1 1308.63,-144 1211.48,-99.51 889.63,-92.23 758.24,-91.14"/>
<polygon fill="black" stroke="black" points="758.02,-87.64 747.99,-91.07 757.96,-94.64 758.02,-87.64"/>
</g>
<!-- frameRater -->
<g id="node7" class="node">
<title>frameRater</title>
<path fill="none" stroke="black" d="M1409.63,-468C1409.63,-468 1335.63,-468 1335.63,-468 1329.63,-468 1323.63,-462 1323.63,-456 1323.63,-456 1323.63,-444 1323.63,-444 1323.63,-438 1329.63,-432 1335.63,-432 1335.63,-432 1409.63,-432 1409.63,-432 1415.63,-432 1421.63,-438 1421.63,-444 1421.63,-444 1421.63,-456 1421.63,-456 1421.63,-462 1415.63,-468 1409.63,-468"/>
<text text-anchor="middle" x="1372.63" y="-446.3" font-family="Times,serif" font-size="14.00">frameRater</text>
</g>
<!-- frameRater&#45;&gt;engine -->
<g id="edge10" class="edge">
<title>frameRater&#45;&gt;engine</title>
<path fill="none" stroke="black" d="M1323.38,-434.13C1320.43,-433.37 1317.49,-432.66 1314.63,-432 1219.76,-410.27 1191.84,-423.99 1098.63,-396 1060.9,-384.67 1054.77,-373.13 1017.63,-360 965.05,-341.41 902.64,-325.72 862.15,-316.34"/>
<polygon fill="black" stroke="black" points="862.87,-312.92 852.34,-314.1 861.31,-319.74 862.87,-312.92"/>
</g>
<!-- frameRater&#45;&gt;renderer -->
<g id="edge19" class="edge">
<title>frameRater&#45;&gt;renderer</title>
<path fill="none" stroke="black" d="M1361.73,-431.71C1332.11,-386.49 1245.04,-264.83 1136.63,-216 1119.82,-208.43 572.63,-175.91 401.96,-165.93"/>
<polygon fill="black" stroke="black" points="401.93,-162.42 391.74,-165.33 401.52,-169.41 401.93,-162.42"/>
</g>
<!-- frameRater&#45;&gt;updateLoop -->
<g id="edge32" class="edge">
<title>frameRater&#45;&gt;updateLoop</title>
<path fill="none" stroke="black" d="M1378.74,-431.84C1384.28,-413.59 1390.48,-384.1 1382.63,-360 1358.09,-284.69 1343.66,-259.74 1277.63,-216 1227.86,-183.03 1160.08,-170.46 1111.57,-165.73"/>
<polygon fill="black" stroke="black" points="1111.79,-162.23 1101.52,-164.83 1111.17,-169.2 1111.79,-162.23"/>
</g>
<!-- profileStore -->
<g id="node8" class="node">
<title>profileStore</title>
<path fill="none" stroke="black" d="M1293.13,-468C1293.13,-468 1216.13,-468 1216.13,-468 1210.13,-468 1204.13,-462 1204.13,-456 1204.13,-456 1204.13,-444 1204.13,-444 1204.13,-438 1210.13,-432 1216.13,-432 1216.13,-432 1293.13,-432 1293.13,-432 1299.13,-432 1305.13,-438 1305.13,-444 1305.13,-444 1305.13,-456 1305.13,-456 1305.13,-462 1299.13,-468 1293.13,-468"/>
<text text-anchor="middle" x="1254.63" y="-446.3" font-family="Times,serif" font-size="14.00">profileStore</text>
</g>
<!-- profileStore&#45;&gt;simulationGateway -->
<g id="edge54" class="edge">
<title>profileStore&#45;&gt;simulationGateway</title>
<path fill="none" stroke="black" d="M1254.67,-431.8C1253.93,-412.71 1250.3,-381.74 1235.63,-360 1202.91,-311.5 1144.47,-276.74 1102.01,-256.38"/>
<polygon fill="black" stroke="black" points="1103.48,-253.2 1092.94,-252.13 1100.51,-259.54 1103.48,-253.2"/>
</g>
<!-- localBoidStore -->
<g id="node9" class="node">
<title>localBoidStore</title>
<path fill="none" stroke="black" d="M673.13,-468C673.13,-468 576.13,-468 576.13,-468 570.13,-468 564.13,-462 564.13,-456 564.13,-456 564.13,-444 564.13,-444 564.13,-438 570.13,-432 576.13,-432 576.13,-432 673.13,-432 673.13,-432 679.13,-432 685.13,-438 685.13,-444 685.13,-444 685.13,-456 685.13,-456 685.13,-462 679.13,-468 673.13,-468"/>
<text text-anchor="middle" x="624.63" y="-446.3" font-family="Times,serif" font-size="14.00">localBoidStore</text>
</g>
<!-- localBoidStore&#45;&gt;engine -->
<g id="edge8" class="edge">
<title>localBoidStore&#45;&gt;engine</title>
<path fill="none" stroke="black" d="M683.88,-431.93C706.82,-423.49 732.38,-411.69 752.63,-396 774.81,-378.82 793.36,-352.54 805.28,-332.99"/>
<polygon fill="black" stroke="black" points="808.36,-334.66 810.43,-324.27 802.33,-331.1 808.36,-334.66"/>
</g>
<!-- localBoidStore&#45;&gt;webglRenderer -->
<g id="edge49" class="edge">
<title>localBoidStore&#45;&gt;webglRenderer</title>
<path fill="none" stroke="black" d="M563.97,-434.07C560.81,-433.35 557.69,-432.66 554.63,-432 470.62,-413.85 437.77,-441.13 364.63,-396 311.18,-363.02 272.46,-297.73 253.92,-261.24"/>
<polygon fill="black" stroke="black" points="257.01,-259.6 249.43,-252.19 250.74,-262.71 257.01,-259.6"/>
</g>
<!-- localBoidStore&#45;&gt;simulationGateway -->
<g id="edge58" class="edge">
<title>localBoidStore&#45;&gt;simulationGateway</title>
<path fill="none" stroke="black" d="M685.47,-431.99C715.33,-422.79 751.5,-410.36 782.63,-396 871.66,-354.92 968.5,-291.64 1017.79,-257.95"/>
<polygon fill="black" stroke="black" points="1019.88,-260.76 1026.14,-252.22 1015.91,-254.99 1019.88,-260.76"/>
</g>
<!-- localBoidStore&#45;&gt;renderer -->
<g id="edge17" class="edge">
<title>localBoidStore&#45;&gt;renderer</title>
<path fill="none" stroke="black" d="M563.86,-432.7C528.52,-422.24 488.31,-408.36 474.63,-396 408.98,-336.7 434.48,-292.26 389.63,-216 384.12,-206.63 377.4,-196.84 371.15,-188.25"/>
<polygon fill="black" stroke="black" points="373.89,-186.07 365.12,-180.13 368.27,-190.25 373.89,-186.07"/>
</g>
<!-- analytics -->
<g id="node19" class="node">
<title>analytics</title>
<path fill="none" stroke="black" d="M756.63,-180C756.63,-180 700.63,-180 700.63,-180 694.63,-180 688.63,-174 688.63,-168 688.63,-168 688.63,-156 688.63,-156 688.63,-150 694.63,-144 700.63,-144 700.63,-144 756.63,-144 756.63,-144 762.63,-144 768.63,-150 768.63,-156 768.63,-156 768.63,-168 768.63,-168 768.63,-174 762.63,-180 756.63,-180"/>
<text text-anchor="middle" x="728.63" y="-158.3" font-family="Times,serif" font-size="14.00">analytics</text>
</g>
<!-- localBoidStore&#45;&gt;analytics -->
<g id="edge25" class="edge">
<title>localBoidStore&#45;&gt;analytics</title>
<path fill="none" stroke="black" d="M630.82,-431.97C648.23,-384.09 697.7,-248.06 718.85,-189.9"/>
<polygon fill="black" stroke="black" points="722.21,-190.9 722.34,-180.31 715.63,-188.51 722.21,-190.9"/>
</g>
<!-- sharedMemoryManager -->
<g id="node10" class="node">
<title>sharedMemoryManager</title>
<path fill="none" stroke="black" d="M533.63,-468C533.63,-468 369.63,-468 369.63,-468 363.63,-468 357.63,-462 357.63,-456 357.63,-456 357.63,-444 357.63,-444 357.63,-438 363.63,-432 369.63,-432 369.63,-432 533.63,-432 533.63,-432 539.63,-432 545.63,-438 545.63,-444 545.63,-444 545.63,-456 545.63,-456 545.63,-462 539.63,-468 533.63,-468"/>
<text text-anchor="middle" x="451.63" y="-446.3" font-family="Times,serif" font-size="14.00">sharedMemoryManager</text>
</g>
<!-- sharedMemoryManager&#45;&gt;engine -->
<g id="edge9" class="edge">
<title>sharedMemoryManager&#45;&gt;engine</title>
<path fill="none" stroke="black" d="M545.8,-432.64C614.97,-420.19 699.44,-403.88 714.63,-396 735.28,-385.29 735.05,-375.23 752.63,-360 764.18,-350 777.28,-339.47 788.81,-330.45"/>
<polygon fill="black" stroke="black" points="791.14,-333.07 796.89,-324.18 786.85,-327.54 791.14,-333.07"/>
</g>
<!-- sharedMemoryManager&#45;&gt;renderer -->
<g id="edge18" class="edge">
<title>sharedMemoryManager&#45;&gt;renderer</title>
<path fill="none" stroke="black" d="M445.67,-431.97C428.94,-384.09 381.37,-248.06 361.04,-189.9"/>
<polygon fill="black" stroke="black" points="364.29,-188.59 357.68,-180.31 357.68,-190.9 364.29,-188.59"/>
</g>
<!-- runtimeStore&#45;&gt;camera -->
<g id="edge3" class="edge">
<title>runtimeStore&#45;&gt;camera</title>
<path fill="none" stroke="black" d="M482.94,-368.9C384.44,-354.83 183.66,-326.15 94.28,-313.38"/>
<polygon fill="black" stroke="black" points="94.59,-309.89 84.2,-311.94 93.6,-316.82 94.59,-309.89"/>
</g>
<!-- runtimeStore&#45;&gt;engine -->
<g id="edge4" class="edge">
<title>runtimeStore&#45;&gt;engine</title>
<path fill="none" stroke="black" d="M596.29,-362.83C649.85,-349.44 728.99,-329.66 777.27,-317.59"/>
<polygon fill="black" stroke="black" points="778.23,-320.96 787.09,-315.14 776.54,-314.17 778.23,-320.96"/>
</g>
<!-- runtimeStore&#45;&gt;webglRenderer -->
<g id="edge46" class="edge">
<title>runtimeStore&#45;&gt;webglRenderer</title>
<path fill="none" stroke="black" d="M515.02,-359.92C486.51,-340.66 437.69,-309.27 392.63,-288 365.89,-275.38 335.28,-264.09 308.65,-255.21"/>
<polygon fill="black" stroke="black" points="309.62,-251.85 299.03,-252.05 307.44,-258.5 309.62,-251.85"/>
</g>
<!-- runtimeStore&#45;&gt;simulationGateway -->
<g id="edge52" class="edge">
<title>runtimeStore&#45;&gt;simulationGateway</title>
<path fill="none" stroke="black" d="M594.18,-359.89C624.58,-350.04 662.96,-337.04 696.63,-324 733.74,-309.62 740.64,-299.88 778.63,-288 839.26,-269.04 909.7,-255.54 963.7,-246.91"/>
<polygon fill="black" stroke="black" points="964.26,-250.37 973.59,-245.36 963.17,-243.45 964.26,-250.37"/>
</g>
<!-- runtimeStore&#45;&gt;renderer -->
<g id="edge13" class="edge">
<title>runtimeStore&#45;&gt;renderer</title>
<path fill="none" stroke="black" d="M532.2,-359.94C514.27,-318.8 470,-217.38 468.63,-216 450.23,-197.42 424.15,-184.74 401.27,-176.46"/>
<polygon fill="black" stroke="black" points="402.29,-173.11 391.7,-173.17 400.02,-179.73 402.29,-173.11"/>
</g>
<!-- runtimeStore&#45;&gt;analytics -->
<g id="edge23" class="edge">
<title>runtimeStore&#45;&gt;analytics</title>
<path fill="none" stroke="black" d="M554.78,-359.85C588.09,-322.13 667.84,-231.83 706.66,-187.88"/>
<polygon fill="black" stroke="black" points="709.41,-190.04 713.41,-180.23 704.17,-185.41 709.41,-190.04"/>
</g>
<!-- runtimeStore&#45;&gt;atmosphere -->
<g id="edge29" class="edge">
<title>runtimeStore&#45;&gt;atmosphere</title>
<path fill="none" stroke="black" d="M569.7,-359.9C601.29,-341.94 652.41,-312.92 696.63,-288 760.83,-251.81 835.58,-209.97 880.17,-185.04"/>
<polygon fill="black" stroke="black" points="881.92,-188.07 888.94,-180.14 878.51,-181.96 881.92,-188.07"/>
</g>
<!-- runtimeStore&#45;&gt;simulation -->
<g id="edge41" class="edge">
<title>runtimeStore&#45;&gt;simulation</title>
<path fill="none" stroke="black" d="M547.41,-359.7C555.68,-341.59 569.38,-312.44 582.63,-288 616.69,-225.18 661.24,-153.98 685,-116.78"/>
<polygon fill="black" stroke="black" points="688.12,-118.38 690.57,-108.08 682.23,-114.61 688.12,-118.38"/>
</g>
<!-- shortcuts -->
<g id="node23" class="node">
<title>shortcuts</title>
<path fill="none" stroke="black" d="M598.63,-36C598.63,-36 538.63,-36 538.63,-36 532.63,-36 526.63,-30 526.63,-24 526.63,-24 526.63,-12 526.63,-12 526.63,-6 532.63,0 538.63,0 538.63,0 598.63,0 598.63,0 604.63,0 610.63,-6 610.63,-12 610.63,-12 610.63,-24 610.63,-24 610.63,-30 604.63,-36 598.63,-36"/>
<text text-anchor="middle" x="568.63" y="-14.3" font-family="Times,serif" font-size="14.00">shortcuts</text>
</g>
<!-- runtimeStore&#45;&gt;shortcuts -->
<g id="edge27" class="edge">
<title>runtimeStore&#45;&gt;shortcuts</title>
<path fill="none" stroke="black" d="M537.85,-359.97C535.23,-333.34 530.63,-280.21 530.63,-235 530.63,-235 530.63,-235 530.63,-161 530.63,-119.63 545.87,-73.72 557.04,-45.61"/>
<polygon fill="black" stroke="black" points="560.39,-46.67 560.94,-36.09 553.91,-44.02 560.39,-46.67"/>
</g>
<!-- timer&#45;&gt;simulationGateway -->
<g id="edge56" class="edge">
<title>timer&#45;&gt;simulationGateway</title>
<path fill="none" stroke="black" d="M959.18,-359.87C977.29,-335.14 1010.9,-289.24 1031.95,-260.51"/>
<polygon fill="black" stroke="black" points="1034.96,-262.33 1038.04,-252.19 1029.31,-258.19 1034.96,-262.33"/>
</g>
<!-- analyticsStore&#45;&gt;simulationGateway -->
<g id="edge53" class="edge">
<title>analyticsStore&#45;&gt;simulationGateway</title>
<path fill="none" stroke="black" d="M1152.64,-359.87C1132.35,-335.03 1094.62,-288.85 1071.17,-260.14"/>
<polygon fill="black" stroke="black" points="1073.71,-257.72 1064.67,-252.19 1068.29,-262.15 1073.71,-257.72"/>
</g>
<!-- analyticsStore&#45;&gt;analytics -->
<g id="edge24" class="edge">
<title>analyticsStore&#45;&gt;analytics</title>
<path fill="none" stroke="black" d="M1169.25,-359.92C1173.26,-326.82 1176.69,-253.92 1136.63,-216 1136.23,-215.62 887.92,-183.55 778.92,-169.48"/>
<polygon fill="black" stroke="black" points="779.19,-165.99 768.82,-168.18 778.29,-172.93 779.19,-165.99"/>
</g>
<!-- analyticsStore&#45;&gt;atmosphere -->
<g id="edge30" class="edge">
<title>analyticsStore&#45;&gt;atmosphere</title>
<path fill="none" stroke="black" d="M1197.4,-359.91C1210.17,-351.02 1223.63,-338.88 1230.63,-324 1251.06,-280.56 1261.94,-252.38 1230.63,-216 1195.59,-175.29 1044.37,-190.18 991.63,-180 987.95,-179.29 984.16,-178.52 980.36,-177.71"/>
<polygon fill="black" stroke="black" points="980.78,-174.22 970.26,-175.51 979.28,-181.06 980.78,-174.22"/>
</g>
<!-- camera&#45;&gt;webglRenderer -->
<g id="edge45" class="edge">
<title>camera&#45;&gt;webglRenderer</title>
<path fill="none" stroke="black" d="M84.4,-292.32C112.53,-282.07 152.7,-267.42 185.39,-255.5"/>
<polygon fill="black" stroke="black" points="186.64,-258.77 194.84,-252.06 184.24,-252.2 186.64,-258.77"/>
</g>
<!-- camera&#45;&gt;renderer -->
<g id="edge12" class="edge">
<title>camera&#45;&gt;renderer</title>
<path fill="none" stroke="black" d="M54.34,-287.65C60.83,-267.23 74.53,-233.84 98.63,-216 130.26,-192.59 237.28,-176.38 301.56,-168.5"/>
<polygon fill="black" stroke="black" points="301.98,-171.97 311.49,-167.3 301.14,-165.02 301.98,-171.97"/>
</g>
<!-- camera&#45;&gt;simulation -->
<g id="edge40" class="edge">
<title>camera&#45;&gt;simulation</title>
<path fill="none" stroke="black" d="M47.56,-287.68C46.21,-267.91 47.23,-235.76 64.63,-216 141.02,-129.26 503.94,-101.27 645.19,-93.57"/>
<polygon fill="black" stroke="black" points="645.57,-97.06 655.37,-93.03 645.2,-90.07 645.57,-97.06"/>
</g>
<!-- engine&#45;&gt;simulationGateway -->
<g id="edge57" class="edge">
<title>engine&#45;&gt;simulationGateway</title>
<path fill="none" stroke="black" d="M852.15,-292.92C856.99,-291.22 861.93,-289.53 866.63,-288 903.04,-276.19 943.91,-264.28 977.88,-254.75"/>
<polygon fill="black" stroke="black" points="979.03,-258.06 987.72,-252 977.15,-251.32 979.03,-258.06"/>
</g>
<!-- engine&#45;&gt;updateLoop -->
<g id="edge33" class="edge">
<title>engine&#45;&gt;updateLoop</title>
<path fill="none" stroke="black" d="M847.49,-287.87C889.12,-262.28 967.58,-214.05 1013.86,-185.6"/>
<polygon fill="black" stroke="black" points="1015.98,-188.41 1022.67,-180.19 1012.32,-182.44 1015.98,-188.41"/>
</g>
<!-- engine&#45;&gt;simulation -->
<g id="edge36" class="edge">
<title>engine&#45;&gt;simulation</title>
<path fill="none" stroke="black" d="M818.98,-287.89C817.03,-256.61 809.17,-189.27 777.63,-144 769.27,-132 757.26,-121.84 745.25,-113.72"/>
<polygon fill="black" stroke="black" points="746.87,-110.6 736.55,-108.18 743.1,-116.5 746.87,-110.6"/>
</g>
<!-- webglRenderer&#45;&gt;renderer -->
<g id="edge15" class="edge">
<title>webglRenderer&#45;&gt;renderer</title>
<path fill="none" stroke="black" d="M268.54,-215.88C282.79,-206.81 300.48,-195.55 315.87,-185.76"/>
<polygon fill="black" stroke="black" points="318.06,-188.51 324.62,-180.19 314.3,-182.61 318.06,-188.51"/>
</g>
<!-- simulationGateway&#45;&gt;analytics -->
<g id="edge22" class="edge">
<title>simulationGateway&#45;&gt;analytics</title>
<path fill="none" stroke="black" d="M973.5,-216.23C913.15,-203.11 830.98,-185.25 778.87,-173.92"/>
<polygon fill="black" stroke="black" points="779.37,-170.45 768.86,-171.75 777.89,-177.29 779.37,-170.45"/>
</g>
<!-- simulationGateway&#45;&gt;atmosphere -->
<g id="edge28" class="edge">
<title>simulationGateway&#45;&gt;atmosphere</title>
<path fill="none" stroke="black" d="M1018.58,-215.88C1001.14,-206.55 979.37,-194.92 960.69,-184.94"/>
<polygon fill="black" stroke="black" points="962.27,-181.82 951.8,-180.19 958.97,-187.99 962.27,-181.82"/>
</g>
<!-- simulationGateway&#45;&gt;updateLoop -->
<g id="edge35" class="edge">
<title>simulationGateway&#45;&gt;updateLoop</title>
<path fill="none" stroke="black" d="M1050.63,-215.7C1050.63,-207.98 1050.63,-198.71 1050.63,-190.11"/>
<polygon fill="black" stroke="black" points="1054.13,-190.1 1050.63,-180.1 1047.13,-190.1 1054.13,-190.1"/>
</g>
<!-- renderer&#45;&gt;simulation -->
<g id="edge39" class="edge">
<title>renderer&#45;&gt;simulation</title>
<path fill="none" stroke="black" d="M391.78,-152.97C454.16,-140.49 574.55,-116.42 645.5,-102.23"/>
<polygon fill="black" stroke="black" points="646.48,-105.6 655.6,-100.21 645.1,-98.74 646.48,-105.6"/>
</g>
<!-- updateLoop&#45;&gt;simulation -->
<g id="edge38" class="edge">
<title>updateLoop&#45;&gt;simulation</title>
<path fill="none" stroke="black" d="M999.89,-148.55C993.09,-146.97 986.2,-145.41 979.63,-144 903.21,-127.57 814.4,-111.1 758.12,-100.97"/>
<polygon fill="black" stroke="black" points="758.46,-97.48 748,-99.16 757.23,-104.37 758.46,-97.48"/>
</g>
<!-- simulation&#45;&gt;shortcuts -->
<g id="edge26" class="edge">
<title>simulation&#45;&gt;shortcuts</title>
<path fill="none" stroke="black" d="M669.09,-71.88C651.38,-62.55 629.28,-50.92 610.31,-40.94"/>
<polygon fill="black" stroke="black" points="611.77,-37.75 601.29,-36.19 608.51,-43.94 611.77,-37.75"/>
</g>
</g>
</svg>
