<?xml version="1.0" encoding="UTF-8" standalone="no"?>
<!DOCTYPE svg PUBLIC "-//W3C//DTD SVG 1.1//EN"
 "http://www.w3.org/Graphics/SVG/1.1/DTD/svg11.dtd">
<!-- Generated by graphviz version 2.43.0 (0)
 -->
<!-- Title: SystemTopology Pages: 1 -->
<svg width="855pt" height="332pt"
 viewBox="0.00 0.00 855.00 332.00" xmlns="http://www.w3.org/2000/svg" xmlns:xlink="http://www.w3.org/1999/xlink">
<g id="graph0" class="graph" transform="scale(1 1) rotate(0) translate(4 328)">
<title>SystemTopology</title>
<polygon fill="white" stroke="transparent" points="-4,4 -4,-328 851,-328 851,4 -4,4"/>
<!-- workerTime -->
<g id="node1" class="node">
<title>workerTime</title>
<path fill="none" stroke="black" d="M349.5,-324C349.5,-324 271.5,-324 271.5,-324 265.5,-324 259.5,-318 259.5,-312 259.5,-312 259.5,-300 259.5,-300 259.5,-294 265.5,-288 271.5,-288 271.5,-288 349.5,-288 349.5,-288 355.5,-288 361.5,-294 361.5,-300 361.5,-300 361.5,-312 361.5,-312 361.5,-318 355.5,-324 349.5,-324"/>
<text text-anchor="middle" x="310.5" y="-302.3" font-family="Times,serif" font-size="14.00">workerTime</text>
</g>
<!-- workerEngine -->
<g id="node7" class="node">
<title>workerEngine</title>
<path fill="none" stroke="black" d="M486,-180C486,-180 393,-180 393,-180 387,-180 381,-174 381,-168 381,-168 381,-156 381,-156 381,-150 387,-144 393,-144 393,-144 486,-144 486,-144 492,-144 498,-150 498,-156 498,-156 498,-168 498,-168 498,-174 492,-180 486,-180"/>
<text text-anchor="middle" x="439.5" y="-158.3" font-family="Times,serif" font-size="14.00">workerEngine</text>
</g>
<!-- workerTime&#45;&gt;workerEngine -->
<g id="edge4" class="edge">
<title>workerTime&#45;&gt;workerEngine</title>
<path fill="none" stroke="black" d="M328.93,-287.75C339.57,-277.58 353.07,-264.33 364.5,-252 383.92,-231.05 404.76,-206.1 419.53,-187.96"/>
<polygon fill="black" stroke="black" points="422.29,-190.11 425.86,-180.14 416.85,-185.71 422.29,-190.11"/>
</g>
<!-- workerUpdateLoop -->
<g id="node8" class="node">
<title>workerUpdateLoop</title>
<path fill="none" stroke="black" d="M480.5,-108C480.5,-108 350.5,-108 350.5,-108 344.5,-108 338.5,-102 338.5,-96 338.5,-96 338.5,-84 338.5,-84 338.5,-78 344.5,-72 350.5,-72 350.5,-72 480.5,-72 480.5,-72 486.5,-72 492.5,-78 492.5,-84 492.5,-84 492.5,-96 492.5,-96 492.5,-102 486.5,-108 480.5,-108"/>
<text text-anchor="middle" x="415.5" y="-86.3" font-family="Times,serif" font-size="14.00">workerUpdateLoop</text>
</g>
<!-- workerTime&#45;&gt;workerUpdateLoop -->
<g id="edge12" class="edge">
<title>workerTime&#45;&gt;workerUpdateLoop</title>
<path fill="none" stroke="black" d="M315,-287.72C323.37,-257.31 343.06,-192.81 371.5,-144 377.25,-134.13 384.83,-124.25 392.08,-115.74"/>
<polygon fill="black" stroke="black" points="394.87,-117.87 398.85,-108.05 389.62,-113.24 394.87,-117.87"/>
</g>
<!-- workerSimulation -->
<g id="node9" class="node">
<title>workerSimulation</title>
<path fill="none" stroke="black" d="M422.5,-36C422.5,-36 302.5,-36 302.5,-36 296.5,-36 290.5,-30 290.5,-24 290.5,-24 290.5,-12 290.5,-12 290.5,-6 296.5,0 302.5,0 302.5,0 422.5,0 422.5,0 428.5,0 434.5,-6 434.5,-12 434.5,-12 434.5,-24 434.5,-24 434.5,-30 428.5,-36 422.5,-36"/>
<text text-anchor="middle" x="362.5" y="-14.3" font-family="Times,serif" font-size="14.00">workerSimulation</text>
</g>
<!-- workerTime&#45;&gt;workerSimulation -->
<g id="edge8" class="edge">
<title>workerTime&#45;&gt;workerSimulation</title>
<path fill="none" stroke="black" d="M309.19,-287.79C306.78,-248.43 303.97,-149.27 329.5,-72 332.65,-62.48 337.83,-52.91 343.17,-44.58"/>
<polygon fill="black" stroke="black" points="346.21,-46.33 348.93,-36.09 340.42,-42.4 346.21,-46.33"/>
</g>
<!-- workerProfiler -->
<g id="node2" class="node">
<title>workerProfiler</title>
<path fill="none" stroke="black" d="M487.5,-324C487.5,-324 391.5,-324 391.5,-324 385.5,-324 379.5,-318 379.5,-312 379.5,-312 379.5,-300 379.5,-300 379.5,-294 385.5,-288 391.5,-288 391.5,-288 487.5,-288 487.5,-288 493.5,-288 499.5,-294 499.5,-300 499.5,-300 499.5,-312 499.5,-312 499.5,-318 493.5,-324 487.5,-324"/>
<text text-anchor="middle" x="439.5" y="-302.3" font-family="Times,serif" font-size="14.00">workerProfiler</text>
</g>
<!-- workerProfiler&#45;&gt;workerEngine -->
<g id="edge3" class="edge">
<title>workerProfiler&#45;&gt;workerEngine</title>
<path fill="none" stroke="black" d="M439.5,-287.87C439.5,-263.67 439.5,-219.21 439.5,-190.39"/>
<polygon fill="black" stroke="black" points="443,-190.19 439.5,-180.19 436,-190.19 443,-190.19"/>
</g>
<!-- workerRandomness -->
<g id="node3" class="node">
<title>workerRandomness</title>
<path fill="none" stroke="black" d="M663.5,-324C663.5,-324 529.5,-324 529.5,-324 523.5,-324 517.5,-318 517.5,-312 517.5,-312 517.5,-300 517.5,-300 517.5,-294 523.5,-288 529.5,-288 529.5,-288 663.5,-288 663.5,-288 669.5,-288 675.5,-294 675.5,-300 675.5,-300 675.5,-312 675.5,-312 675.5,-318 669.5,-324 663.5,-324"/>
<text text-anchor="middle" x="596.5" y="-302.3" font-family="Times,serif" font-size="14.00">workerRandomness</text>
</g>
<!-- workerRandomness&#45;&gt;workerEngine -->
<g id="edge5" class="edge">
<title>workerRandomness&#45;&gt;workerEngine</title>
<path fill="none" stroke="black" d="M577.56,-287.87C549.74,-262.71 497.72,-215.65 466.08,-187.04"/>
<polygon fill="black" stroke="black" points="468.27,-184.3 458.51,-180.19 463.57,-189.49 468.27,-184.3"/>
</g>
<!-- workerFrameRater -->
<g id="node4" class="node">
<title>workerFrameRater</title>
<path fill="none" stroke="black" d="M835,-324C835,-324 706,-324 706,-324 700,-324 694,-318 694,-312 694,-312 694,-300 694,-300 694,-294 700,-288 706,-288 706,-288 835,-288 835,-288 841,-288 847,-294 847,-300 847,-300 847,-312 847,-312 847,-318 841,-324 835,-324"/>
<text text-anchor="middle" x="770.5" y="-302.3" font-family="Times,serif" font-size="14.00">workerFrameRater</text>
</g>
<!-- workerFrameRater&#45;&gt;workerEngine -->
<g id="edge6" class="edge">
<title>workerFrameRater&#45;&gt;workerEngine</title>
<path fill="none" stroke="black" d="M730.57,-287.87C669.85,-261.82 554.43,-212.3 488.64,-184.08"/>
<polygon fill="black" stroke="black" points="489.88,-180.8 479.31,-180.08 487.12,-187.24 489.88,-180.8"/>
</g>
<!-- workerFrameRater&#45;&gt;workerUpdateLoop -->
<g id="edge13" class="edge">
<title>workerFrameRater&#45;&gt;workerUpdateLoop</title>
<path fill="none" stroke="black" d="M742.87,-287.89C694.93,-258.28 593.19,-195.67 506.5,-144 489.27,-133.73 470.1,-122.53 453.82,-113.09"/>
<polygon fill="black" stroke="black" points="455.5,-110.02 445.1,-108.04 452,-116.08 455.5,-110.02"/>
</g>
<!-- workerSharedMemoryManager -->
<g id="node5" class="node">
<title>workerSharedMemoryManager</title>
<path fill="none" stroke="black" d="M229,-324C229,-324 12,-324 12,-324 6,-324 0,-318 0,-312 0,-312 0,-300 0,-300 0,-294 6,-288 12,-288 12,-288 229,-288 229,-288 235,-288 241,-294 241,-300 241,-300 241,-312 241,-312 241,-318 235,-324 229,-324"/>
<text text-anchor="middle" x="120.5" y="-302.3" font-family="Times,serif" font-size="14.00">workerSharedMemoryManager</text>
</g>
<!-- workerStore -->
<g id="node6" class="node">
<title>workerStore</title>
<path fill="none" stroke="black" d="M270.5,-252C270.5,-252 188.5,-252 188.5,-252 182.5,-252 176.5,-246 176.5,-240 176.5,-240 176.5,-228 176.5,-228 176.5,-222 182.5,-216 188.5,-216 188.5,-216 270.5,-216 270.5,-216 276.5,-216 282.5,-222 282.5,-228 282.5,-228 282.5,-240 282.5,-240 282.5,-246 276.5,-252 270.5,-252"/>
<text text-anchor="middle" x="229.5" y="-230.3" font-family="Times,serif" font-size="14.00">workerStore</text>
</g>
<!-- workerSharedMemoryManager&#45;&gt;workerStore -->
<g id="edge1" class="edge">
<title>workerSharedMemoryManager&#45;&gt;workerStore</title>
<path fill="none" stroke="black" d="M147.16,-287.88C161.28,-278.81 178.81,-267.55 194.06,-257.76"/>
<polygon fill="black" stroke="black" points="196.21,-260.54 202.73,-252.19 192.43,-254.65 196.21,-260.54"/>
</g>
<!-- workerStore&#45;&gt;workerEngine -->
<g id="edge2" class="edge">
<title>workerStore&#45;&gt;workerEngine</title>
<path fill="none" stroke="black" d="M280.6,-215.97C310.07,-206.14 347.31,-193.73 378.33,-183.39"/>
<polygon fill="black" stroke="black" points="379.79,-186.59 388.17,-180.11 377.57,-179.95 379.79,-186.59"/>
</g>
<!-- workerStore&#45;&gt;workerSimulation -->
<g id="edge10" class="edge">
<title>workerStore&#45;&gt;workerSimulation</title>
<path fill="none" stroke="black" d="M233.67,-215.58C241.78,-184.4 261.95,-117.99 296.5,-72 304.94,-60.76 316.28,-50.53 327.18,-42.11"/>
<polygon fill="black" stroke="black" points="329.42,-44.81 335.38,-36.04 325.26,-39.18 329.42,-44.81"/>
</g>
<!-- workerEngine&#45;&gt;workerUpdateLoop -->
<g id="edge11" class="edge">
<title>workerEngine&#45;&gt;workerUpdateLoop</title>
<path fill="none" stroke="black" d="M433.57,-143.7C430.89,-135.9 427.67,-126.51 424.7,-117.83"/>
<polygon fill="black" stroke="black" points="427.92,-116.43 421.36,-108.1 421.3,-118.7 427.92,-116.43"/>
</g>
<!-- workerEngine&#45;&gt;workerSimulation -->
<g id="edge7" class="edge">
<title>workerEngine&#45;&gt;workerSimulation</title>
<path fill="none" stroke="black" d="M469,-143.94C481.48,-134.99 494.69,-122.79 501.5,-108 508.2,-93.47 510.58,-85.18 501.5,-72 488.1,-52.55 466.54,-40.24 444.36,-32.44"/>
<polygon fill="black" stroke="black" points="445.43,-29.11 434.84,-29.36 443.28,-35.77 445.43,-29.11"/>
</g>
<!-- workerUpdateLoop&#45;&gt;workerSimulation -->
<g id="edge9" class="edge">
<title>workerUpdateLoop&#45;&gt;workerSimulation</title>
<path fill="none" stroke="black" d="M402.4,-71.7C396.11,-63.39 388.45,-53.28 381.54,-44.14"/>
<polygon fill="black" stroke="black" points="384.28,-41.96 375.45,-36.1 378.7,-46.19 384.28,-41.96"/>
</g>
</g>
</svg>
